<?xml version="1.0" encoding="utf-8"?>
<!DOCTYPE svg PUBLIC "-//W3C//DTD SVG 1.0//EN" "http://www.w3.org/TR/2001/REC-SVG-20010904/DTD/svg10.dtd">
<svg version="1.0" xmlns="http://www.w3.org/2000/svg" width="576px" height="373px" viewBox="0 0 576 373" preserveAspectRatio="xMidYMid meet">
 <g fill="#ffffff">
  <path d="M0 186.50 l0 -186.50 288 0 288 0 0 186.50 0 186.50 -288 0 -288 0 0 -186.50z m360.65 69.30 c6.10 -3.10 15.20 -11.15 19 -16.80 1.55 -2.25 1.80 -3 1.55 -4.50 -0.20 -1.10 0 -2.75 0.50 -4.20 0.45 -1.30 0.80 -3.95 0.80 -6.05 0 -3.70 0 -3.75 -1.25 -3.75 -0.80 0 -1.40 -0.35 -1.55 -0.85 -0.60 -2.10 -4.10 -8.40 -6.05 -10.85 l-2.10 -2.65 -8.55 8.50 -8.60 8.45 -2.05 -0.20 c-2 -0.20 -2.35 0 -6.85 3.65 -9.15 7.40 -17.95 11.95 -24.10 12.55 -1.35 0.15 -1.35 0.20 1.85 3.75 5.80 6.35 13.15 11.20 19.80 12.90 2.50 0.70 4.35 0.80 8.55 0.55 3.40 -0.20 5.45 -0.15 5.65 0.20 0.45 0.70 0.70 0.65 3.40 -0.70z m-33.45 -24.80 c7.60 -3.90 17.30 -11.40 24.25 -18.80 2.05 -2.20 4.65 -4.55 5.75 -5.30 2.15 -1.45 5.30 -1.90 5.30 -0.75 0.05 0.95 2.30 -1.85 4.55 -5.70 l2.05 -3.55 -1.30 -1.35 c-0.70 -0.75 -1.65 -2.45 -2.05 -3.80 -1.15 -3.85 -1.30 -4 -3.45 -2.85 -2.80 1.50 -6.30 4.95 -6.30 6.25 0 1.50 -0.45 2.05 -2.50 3.10 -2.75 1.40 -8.90 5.65 -12.75 8.80 -4.75 3.85 -14 13.50 -16.85 17.50 -5.95 8.40 -4.80 10.60 3.30 6.45z m-49.10 -64.70 c7.95 -1.55 10.75 -3.30 12.40 -7.65 2.15 -5.65 4.45 -16.10 5.05 -23.05 0.50 -5.95 0.50 -7.55 -0.20 -12 -1.35 -8.10 -1.25 -8.65 2.15 -15.65 1.60 -3.35 2.85 -6.30 2.70 -6.55 -0.15 -0.20 -0.60 -0.40 -1 -0.40 -2.35 0 -7.70 -4.40 -7.70 -6.35 0 -0.90 -0.30 -1.15 -1.25 -1.15 -1.20 0 -1.25 -0.10 -1.25 -3.20 0 -10.30 -4.50 -21.40 -11.35 -28.10 -5.05 -4.90 -13.70 -8.65 -20.05 -8.70 -5.80 0 -13.90 2.80 -19.95 6.90 -7.30 4.95 -14.40 15.25 -17 24.70 -0.80 2.80 -1.05 3.15 -4.55 5.75 -6.40 4.85 -11.20 11 -15.35 19.85 -3.20 6.65 -5.45 13.95 -6.80 22 l-1 5.95 1.20 2.30 c3.45 6.70 19.80 15.55 37.85 20.50 9.15 2.50 18.80 4.35 27 5.20 4.75 0.50 15.70 0.30 19.10 -0.35z m89.05 -38.60 c5.05 -2.60 10.60 -8.35 13.35 -13.90 1.35 -2.65 1.50 -3.45 1.50 -7.70 0 -4.60 -0.05 -4.70 -0.90 -3.95 -0.50 0.50 -1.05 0.85 -1.20 0.85 -1.25 0 -13.25 7.90 -15 9.85 -1.50 1.65 -2.85 5.40 -3.95 10.70 -0.55 2.80 -1.20 5.55 -1.50 6 -0.25 0.50 -0.45 1 -0.45 1.10 0 0.30 6.15 -1.95 8.15 -2.95z m-10.30 -10.55 c0.15 -0.50 0.70 -1.45 1.15 -2.15 1.50 -2.20 2.65 -6.45 2.40 -8.95 -0.25 -2.50 -3.80 -10.55 -4.65 -10.55 -0.30 0 -1.45 -0.90 -2.50 -2.05 -3.40 -3.45 -11.90 -9 -12.65 -8.20 -0.15 0.15 -0.05 4.05 0.25 8.65 0.65 9.45 1.50 12.65 4.40 16.65 1.95 2.60 3.40 3.80 7.45 6 3 1.65 3.70 1.75 4.15 0.60z m16.85 -29.05 c3.20 -1.55 7.80 -6.15 9.25 -9.25 0.65 -1.30 1.45 -3.60 1.80 -5.15 l0.65 -2.85 -2.65 0.30 c-4.65 0.45 -8.75 3.25 -11.90 8 -1.85 2.75 -3.35 7.05 -3.35 9.45 0 1.40 0.05 1.45 1.90 1.10 1 -0.20 2.95 -0.90 4.30 -1.60z m-15.95 -11.35 c0.70 -3.55 1.70 -8.15 2.20 -10.10 0.55 -2.20 0.75 -3.65 0.45 -3.65 -0.30 0 -2.15 1.65 -4.15 3.65 -3.60 3.60 -5.75 7.55 -5.75 10.50 0.05 1.55 1.75 5.10 3.60 7.50 l1.65 2.05 0.35 -1.75 c0.20 -0.95 0.90 -4.60 1.65 -8.20z"/>
  <path d="M273.10 139.45 c-6.10 -3.05 -8.95 -8.20 -9.45 -16.95 l-0.25 -4.80 6.40 -5.60 c5.75 -5 6.65 -5.60 8.30 -5.60 1.80 0 1.90 -0.10 1.90 -1.60 0 -0.85 0.30 -1.95 0.70 -2.35 0.65 -0.70 0.35 -0.80 -3.35 -0.65 -5.15 0.25 -13.30 -0.60 -21.35 -2.15 -3.45 -0.70 -6.30 -1.25 -6.35 -1.25 -0.10 0 -0.15 0.90 -0.15 2 l0 2 -2.20 0 c-3.95 0 -14.55 -2.60 -21.25 -5.25 l-3 -1.15 -2.90 2.15 c-3.60 2.60 -6.40 5.70 -10 11.15 -2.55 3.80 -2.85 4.10 -4.45 4.10 -1.60 0 -1.70 -0.10 -1.70 -1.65 0 -3.70 6.95 -15.40 11.85 -19.85 3.10 -2.85 4.40 -3.50 6.80 -3.50 1.60 0 1.60 -0.05 1.45 -2.20 -0.30 -3.45 2.50 -10.30 6.40 -15.50 4.60 -6.25 12.55 -11.60 19.50 -13.05 9.75 -2.10 20.90 0.60 26.30 6.35 6.10 6.40 9.45 16.65 9.10 27.90 -0.15 5.40 -0.10 5.85 0.70 5.45 0.45 -0.25 1 -0.70 1.15 -0.95 0.15 -0.30 1.05 -0.50 1.90 -0.50 1.35 0 2.20 0.60 4.75 3.15 2.75 2.80 3.10 3.35 3.10 5.15 0 1.90 -2.60 7.75 -4.40 9.85 -1.70 1.95 -7.05 0.15 -9.70 -3.35 -2.25 -2.90 -2.70 -3.30 -1.60 -1.35 1.10 1.90 4.05 4.65 6.80 6.20 2.85 1.65 2.60 2.75 -2.95 14.80 l-4.90 10.50 -2.05 0.05 c-1.30 0 -3.15 -0.55 -5.10 -1.55z m-28.85 -42.45 c-0.55 -0.25 -1.35 -0.45 -1.75 -0.45 -0.45 0 -0.40 0.20 0.25 0.45 0.55 0.25 1.35 0.45 1.75 0.45 0.45 0 0.40 -0.20 -0.25 -0.45z m34.75 0 c0 -0.25 -0.20 -0.50 -0.50 -0.50 -0.25 0 -0.50 -0.40 -0.50 -0.95 0 -1.25 -0.50 -1.60 -5.75 -3.80 -3.80 -1.65 -4.95 -1.90 -7.60 -1.80 -2.85 0.05 -3.15 0 -3.15 -0.90 0 -0.75 -0.50 -1.15 -1.85 -1.50 -1.25 -0.35 -1.95 -0.35 -2.05 -0.05 -0.25 0.65 -3.60 0.65 -3.60 0 0 -0.25 -0.80 -0.50 -1.80 -0.50 -3.20 0 -10.70 -1.60 -10.70 -2.25 0 -0.85 -2.35 -1.25 -7.50 -1.25 -3.90 0 -4.40 0.10 -4.65 0.95 -0.70 2.75 19.65 9.70 35.90 12.30 4.95 0.80 13.75 0.95 13.75 0.25z m-38 -0.95 c-0.40 -0.25 -1.30 -0.55 -2 -0.75 -1.05 -0.25 -1 -0.15 0.25 0.45 1.60 0.75 3 1 1.75 0.30z"/>
 </g>
 <g fill="#dda15e">
  <path d="M346.25 258 c-4.50 -0.45 -7.25 -1.25 -11 -3.10 -5.55 -2.80 -10.60 -7.05 -15.55 -13 -4.75 -5.70 -5.40 -6.95 -5 -9.80 1.20 -8.65 17.20 -26.55 32.45 -36.30 4.80 -3.10 3.15 -1.10 -2 2.40 -15.80 10.65 -29.05 25.85 -30 34.45 -0.25 1.95 -0.10 2.45 1 3.55 2.45 2.40 7.05 1.60 15.30 -2.70 6.25 -3.30 12.40 -7.90 19.20 -14.50 5.20 -4.95 10.70 -11.30 10.25 -11.75 -0.45 -0.50 -4.45 2.75 -7.95 6.45 -8.35 8.85 -21.05 18.15 -28 20.50 -3.05 1 -5.85 0.55 -6.55 -1 -1.35 -2.95 2.95 -9.95 11.60 -18.90 7.65 -7.90 15.75 -14.35 22 -17.55 1.95 -1 2.50 -1.60 2.50 -2.85 0 -0.70 -0.30 -0.80 -1.60 -0.60 l-1.65 0.25 1.25 -0.75 c0.70 -0.40 1.60 -0.75 2.05 -0.80 0.40 0 1.50 -0.80 2.45 -1.75 1.55 -1.60 6.80 -4.75 7.90 -4.75 0.55 0 2.60 4.55 2.60 5.75 0 0.40 1.75 2.65 3.90 4.90 6.10 6.50 9.80 12.55 11.60 18.90 1.25 4.50 1.45 13.15 0.35 16.40 -0.40 1.15 -0.55 2.20 -0.30 2.35 1 0.60 0.35 3.20 -1.60 6.20 -3.80 5.85 -12.95 14.05 -19.30 17.30 -2.45 1.25 -5.85 1.60 -6.40 0.70 -0.20 -0.30 -0.70 -0.45 -1.15 -0.30 -1.95 0.55 -5.05 0.65 -8.35 0.30z m-16 -29.20 c3.55 -1.60 18.70 -14.05 21.95 -18 1.05 -1.30 1.80 -2.75 1.80 -3.50 0 -1.20 0.20 -1.30 2 -1.30 1.70 0 2.40 -0.35 4.35 -2.10 2.60 -2.45 4.20 -4.80 5.10 -7.50 0.50 -1.55 0.50 -2.35 -0.15 -4.60 -0.70 -2.30 -2.30 -4.75 -2.30 -3.45 0 0.25 -1.15 1.30 -2.55 2.35 -3.25 2.40 -4.40 4.90 -4.45 9.35 l0 3.30 -2.95 1.80 c-7.30 4.55 -19.45 15.65 -24.45 22.45 -2.35 3.20 -2.60 3.90 -0.95 2.70 0.60 -0.45 1.80 -1.10 2.60 -1.50z m35.05 -19.45 l6.10 -6.40 2.45 2.80 c2.65 3.05 7.15 10.50 7.15 11.85 0 0.45 0.20 1 0.50 1.15 1.35 0.85 -1.60 -7.95 -4.05 -12.05 -2.15 -3.50 -5.80 -8.20 -6.45 -8.20 -0.25 0 -1.35 1.55 -2.45 3.40 -2.60 4.50 -7.45 10.40 -12.40 15.20 -2.20 2.15 -3.90 4 -3.75 4.10 0.40 0.45 6.40 -5.10 12.90 -11.85z"/>
  <path d="M257.50 168.15 c-18.55 -1.95 -37.85 -7.50 -51.35 -14.75 -9 -4.85 -13.80 -9.35 -14.50 -13.60 -0.40 -2.55 1.20 -12.10 3.15 -18.95 1.80 -6.20 5.95 -15.60 8.70 -19.60 3.05 -4.45 7.40 -9.10 11.10 -11.90 3.50 -2.60 3.75 -2.95 4.55 -5.75 1.90 -6.85 5.75 -13.65 11.10 -19.50 5 -5.50 12.60 -9.80 19.85 -11.30 21.75 -4.50 39.45 11.25 40.50 36.10 0.15 3.25 0.50 3.65 2 2.25 0.75 -0.70 1.20 -0.70 2.85 -0.20 2.30 0.65 7.40 5.10 7.85 6.80 0.35 1.35 -1.40 5.95 -4.95 13 l-2.50 5 0.85 5.50 c0.45 3 0.80 7.20 0.80 9.25 -0.05 8.45 -2.50 21.80 -5.50 29.65 -1.65 4.35 -4.45 6.10 -12.40 7.65 -3.40 0.65 -17.15 0.90 -22.10 0.35z m26.15 -39.30 c3.15 -6.70 4.70 -10.65 4.35 -10.75 -1.95 -0.65 -6.90 -5.15 -8.25 -7.45 -0.80 -1.45 -1.60 -2.60 -1.75 -2.65 -0.15 0 -3.15 2.50 -6.70 5.60 l-6.45 5.60 0.30 3.30 c0.65 7.50 3.80 12.65 9.45 15.45 1.70 0.85 3.30 1.55 3.60 1.55 0.30 -0.05 2.75 -4.80 5.45 -10.65z m9.85 -20.30 c1.10 -2.10 2 -4.05 2 -4.30 0 -0.30 -1.45 -1.95 -3.15 -3.65 l-3.20 -3.15 -3.80 3.55 c-2.15 2 -3.85 3.80 -3.85 4 0 0.20 1 1.75 2.20 3.35 2.35 3.25 6 5.50 7.20 4.55 0.30 -0.30 1.50 -2.25 2.60 -4.35z m-84.85 -0.65 c3.50 -5.25 6.35 -8.50 9.55 -10.85 4.40 -3.25 4.25 -3.25 8.60 -1.55 4.70 1.80 11.25 3.75 16.10 4.75 4.15 0.85 5.10 0.90 5.10 0.35 0 -0.25 -1.65 -0.80 -3.60 -1.25 -4.95 -1.20 -11.25 -3.85 -16.35 -6.90 -3.50 -2.05 -4.55 -2.45 -5.80 -2.25 -3.45 0.65 -10.50 8.80 -14.45 16.70 -1.50 3 -2.35 5.10 -2.10 5.10 0.10 0 1.45 -1.85 2.95 -4.10z m73.55 -8.55 c0.70 -0.50 1.30 -1.30 1.30 -1.80 0 -0.95 -3.35 -3.85 -3.85 -3.35 -0.15 0.15 0.30 0.75 1 1.35 3.10 2.40 1.20 3.45 -6.25 3.45 -9.15 0 -21.10 -2.30 -33.40 -6.30 -11.25 -3.70 -15.50 -6.55 -13.45 -9.05 0.55 -0.65 0.55 -0.75 -0.30 -0.60 -0.55 0.15 -1.20 0.85 -1.50 1.65 -0.45 1.25 -0.30 1.55 1 2.65 5.90 4.95 25.60 10.75 43.25 12.85 4.15 0.50 10.85 0 12.20 -0.85z m20.80 -0.70 c0 -0.55 -0.35 -0.65 -1.55 -0.40 -2.55 0.55 -7.45 -3.45 -7.45 -6.10 0 -0.70 -0.20 -1.05 -0.50 -0.90 -1.15 0.70 -0.50 3.05 1.40 4.85 3.50 3.35 8.10 4.80 8.10 2.55z m-19 -7.50 c-0.05 -9.60 -3.70 -19.75 -9.20 -25.55 -3.60 -3.85 -11.70 -7.10 -17.50 -7.10 -9.05 0.10 -19.35 5.65 -25.30 13.80 -2.10 2.80 -5.70 9.70 -5.15 9.75 0.25 0 3.10 0 6.40 -0.05 14.90 -0.10 38.05 5.65 47.50 11.80 1.40 0.90 2.65 1.65 2.90 1.65 0.20 0.05 0.35 -1.90 0.35 -4.30z m-19.50 -3.15 c0 -0.25 -0.35 -0.50 -0.75 -0.50 -0.40 0 -0.75 0.25 -0.75 0.50 0 0.30 0.35 0.50 0.75 0.50 0.40 0 0.75 -0.20 0.75 -0.50z m-11.75 -2.95 c-0.75 -0.65 -4.75 -1.15 -4.75 -0.60 0 0.45 1.45 0.80 4 1 0.70 0 1 -0.15 0.75 -0.40z m-5.75 -1.05 c0 -0.25 -0.45 -0.50 -1 -0.50 -0.55 0 -1 0.25 -1 0.50 0 0.30 0.45 0.50 1 0.50 0.55 0 1 -0.20 1 -0.50z"/>
  <path d="M336.50 155.20 c0 -0.20 1.80 -2.20 3.95 -4.50 6.05 -6.35 10.35 -14 13.50 -23.95 1.95 -6.05 2 -7.05 0.20 -7.40 -0.80 -0.15 -2.85 -1.15 -4.60 -2.20 -3.95 -2.35 -7.15 -6.25 -8.55 -10.45 -1.15 -3.40 -2 -11.65 -2 -19.65 0 -4.50 0.10 -5.10 0.80 -4.85 0.45 0.15 0.90 0.30 1 0.30 0.10 0 0.20 1.80 0.20 3.95 0 2.20 0.25 6.90 0.55 10.40 0.70 8.10 2.30 12.10 6.45 15.80 3.20 2.90 6.20 4.50 7.50 4.10 2.15 -0.70 4.50 -5.95 4.50 -10.20 0 -3.65 -2.95 -8.55 -8.25 -13.60 -3.30 -3.15 -3.95 -3.35 -2.25 -0.65 0.90 1.45 1.50 3.05 1.50 4.05 0 1.55 -0.10 1.65 -1.70 1.65 -1.45 0 -1.85 -0.30 -3.50 -2.80 -1.15 -1.85 -1.80 -3.40 -1.80 -4.50 0 -1.50 0.15 -1.70 1.35 -1.70 1.25 0 1.25 -0.05 0.50 -0.90 -1.15 -1.30 -1.15 -3.15 0.05 -2.75 1.60 0.60 5.35 3.35 8.25 6.10 l2.85 2.70 -0.30 -1.70 c-0.20 -0.95 -1.50 -3.10 -3 -5 -4.80 -5.90 -5.75 -10.05 -3.65 -15.70 1.40 -3.80 6.05 -8.70 10.05 -10.75 2.70 -1.30 4.40 -1.85 4.40 -1.35 0 0.10 -0.45 1.05 -0.95 2.15 -2.30 4.75 -5.75 21.05 -5.75 27.45 -0.05 4.80 0.05 5.15 1.80 8.75 2.15 4.40 3.10 8.05 2.65 10.50 -0.50 2.85 -1.80 6.65 -2.80 8.05 -0.50 0.70 -1.40 3.50 -1.95 6.15 -0.60 2.70 -1.40 5.80 -1.80 6.90 -0.85 2.40 -0.90 3.05 -0.20 2.65 1.20 -0.75 3 -5.45 3.95 -10.25 1.10 -5.25 2.45 -9 3.95 -10.65 1.75 -2 13.75 -9.85 15.05 -9.85 0.15 0 1.55 -1.15 3.05 -2.50 1.50 -1.40 2.80 -2.50 2.85 -2.50 0.05 0 -0.10 0.60 -0.40 1.35 -0.25 0.70 -0.40 4.15 -0.35 7.65 0.15 6.20 0.10 6.35 -1.45 9.55 -3.70 7.50 -10.60 13.65 -17.90 15.95 -1.10 0.35 -3.90 1.50 -6.25 2.60 l-4.25 1.95 -2.10 4.10 c-1.15 2.25 -3.35 5.60 -4.90 7.45 -3.65 4.40 -10.25 9.60 -10.25 8.10z m27.40 -26.70 c6.45 -2.50 11.50 -6.85 15.35 -13.30 2 -3.30 2.75 -6.50 2.30 -10.05 l-0.30 -2.60 -6.40 3.85 c-6.80 4.10 -11 7.75 -11.85 10.30 -0.25 0.85 -0.90 3.70 -1.45 6.30 -0.55 2.60 -1.20 5.40 -1.50 6.15 -0.65 1.70 -0.70 2.35 -0.10 1.40 0.25 -0.35 2 -1.30 3.95 -2.05z m-4.50 -61.50 c0.55 -1.95 0.85 -3.50 0.75 -3.50 -0.75 0 -1.60 1.65 -1.75 3.30 -0.15 1.85 -0.25 1.95 -1.90 2.10 -2.25 0.25 -2.90 0.80 -4.30 3.85 -1.25 2.60 -1.55 5.45 -0.70 6.75 0.40 0.60 0.50 0.55 0.50 -0.35 0 -0.95 0.25 -1.15 1.70 -1.15 1.75 0 2.25 0.60 2.35 2.65 0 0.60 0.55 -1.45 1.20 -4.55 0.65 -3.10 1.65 -7.20 2.15 -9.10z"/>
  <path d="M352.85 108.25 c-0.45 -1 -0.85 -2.45 -0.85 -3.25 0 -1.40 0.15 -1.50 1.90 -1.50 1.70 0 1.95 0.20 2.50 1.65 0.35 0.90 0.60 2.40 0.60 3.25 0 1.50 -0.15 1.60 -1.65 1.60 -1.40 0 -1.80 -0.25 -2.50 -1.75z"/>
  <path d="M366 88.90 c0 -7.55 4.20 -14.65 10.65 -18 1.50 -0.75 3.25 -1.15 6.10 -1.25 4.30 -0.20 5.85 0.25 4.85 1.45 -0.30 0.40 -0.90 2.10 -1.30 3.80 -1.05 4.55 -2.65 7.50 -5.80 10.65 -3.05 3.05 -6.60 5.10 -9.75 5.65 -1.10 0.20 -2.60 0.45 -3.35 0.60 l-1.40 0.30 0 -3.20z m8.15 -1.60 c4.20 -2.70 9.80 -9.25 9.25 -10.80 -0.20 -0.70 -5.55 4.40 -8.95 8.50 -1.50 1.80 -2.90 3.40 -3.20 3.60 -0.25 0.20 -0.30 0.40 -0.10 0.40 0.20 0 1.55 -0.75 3 -1.70z m0.90 -10.15 c1.40 -1.45 3.20 -3.20 4.10 -3.90 l1.60 -1.25 -1.75 0.65 c-2.95 1 -10.05 8.75 -10 10.80 0 0.15 0.85 -0.60 1.80 -1.70 1 -1.10 2.90 -3.15 4.25 -4.60z"/>
 </g>
 <g fill="#71c067">
  <path d="M322.50 233.70 c0 -0.60 2.50 -4.70 4.70 -7.70 4.80 -6.55 16.15 -17 23.80 -21.95 l3.15 -2.05 0.10 -3.20 c0.25 -4.85 1.50 -7.20 5.50 -10.25 1.90 -1.40 3.70 -2.55 4.05 -2.55 1.05 0 2.55 2.35 3.20 5.05 1.20 4.90 -0.20 9.25 -4.15 13.35 -2.85 2.90 -5.25 4.40 -6 3.65 -0.85 -0.85 -1.50 -0.65 -1.20 0.45 0.50 2 -6.65 9.15 -17.55 17.45 -3.80 2.90 -5.10 3.75 -10.10 6.50 -1.95 1.05 -5.50 1.90 -5.50 1.25z"/>
  <path d="M339.70 152.65 c-0.30 -0.10 0.85 -1.60 2.55 -3.40 5.25 -5.40 9.40 -13.35 12.75 -24.35 1.10 -3.65 1.90 -5.40 2.40 -5.40 0.45 0 0.60 0.30 0.40 0.85 -0.20 0.45 -0.55 1.85 -0.85 3.10 -1.85 8.60 -5.90 17.40 -10.60 23.15 -3.40 4.15 -5.80 6.35 -6.65 6.05z"/>
  <path d="M357.45 132.65 l-1.25 -0.20 1.40 -2.85 c0.75 -1.55 1.85 -5.10 2.40 -7.85 0.55 -2.75 1.25 -5.70 1.50 -6.55 0.85 -2.55 5.20 -6.35 11.90 -10.40 3.50 -2.10 7.05 -4.40 7.90 -5.05 l1.55 -1.25 0.30 5.25 c0.40 6.30 -0.15 9.20 -2.35 12.90 -3.85 6.40 -9.35 11.15 -15.40 13.35 -1.75 0.65 -3.50 1.45 -3.90 1.75 -1 0.80 -2.45 1.15 -4.05 0.90z"/>
  <path d="M352.25 118.05 c-4.55 -2.15 -8.10 -5.65 -10.05 -9.80 -1.40 -3 -1.70 -4.40 -2.15 -9.90 -0.30 -3.50 -0.55 -8.65 -0.55 -11.40 l0 -5.05 3.30 1.80 c3.80 2.10 9.05 6.20 12.05 9.35 5 5.25 6.70 8.60 6.75 13.30 0.05 4.90 -1.25 8.80 -3.70 11.20 -1.10 1.05 -2.15 1.95 -2.35 1.95 -0.15 0 -1.65 -0.65 -3.30 -1.45z m2.65 -11.45 c-0.35 -0.90 -0.80 -1.60 -1 -1.60 -0.20 0 0 0.80 0.45 1.75 1 2.10 1.35 2.05 0.55 -0.15z m-5.95 -11.20 c-1.10 -2 -3.10 -4.95 -3.30 -4.75 -0.10 0.10 0.65 1.45 1.65 3.05 1.85 2.85 2.75 3.75 1.65 1.70z"/>
  <path d="M367.50 90.50 c0 -0.25 -0.30 -0.50 -0.70 -0.50 -1.15 0 -0.30 -5.90 1.50 -9.85 1.15 -2.60 6 -7.45 8.60 -8.65 2.05 -1 10.10 -2.20 10.10 -1.55 0 0.10 -0.40 0.50 -0.85 0.85 -0.70 0.55 -0.75 0.80 -0.25 1.10 0.80 0.55 -0.50 5.95 -2.05 8.60 -1.50 2.60 -5.25 6.40 -8.10 8.25 -2.55 1.65 -8.25 2.85 -8.25 1.75z m2 -2.75 c0 -0.40 0.15 -0.75 0.40 -0.85 0.20 -0.05 2 -2.10 3.95 -4.45 3.65 -4.30 5.20 -5.80 9.05 -8.60 1.15 -0.85 2.10 -1.75 2.10 -2 0 -0.70 -6.10 4.30 -8.85 7.20 -1.30 1.45 -2.65 2.85 -2.90 3.15 -3.30 3.50 -6.65 8.55 -4.50 6.80 0.40 -0.35 0.75 -0.90 0.75 -1.25z"/>
  <path d="M353.10 86.10 c-3.10 -4.50 -3.60 -5.75 -3.60 -9.20 0 -4.45 1.55 -7.50 6.20 -12.15 3.30 -3.30 3.95 -3.75 5.60 -3.75 1.50 0 1.75 0.15 1.55 0.85 -0.10 0.50 -0.80 2.85 -1.50 5.25 -0.75 2.40 -2 7.95 -2.90 12.25 -1.05 5.40 -1.85 8.15 -2.45 8.75 -0.85 0.80 -1 0.70 -2.90 -2z m1.85 -1.80 c-0.45 -0.40 -0.50 -0.35 -0.25 0.35 0.15 0.50 0.35 1.20 0.35 1.50 0.05 0.35 0.15 0.20 0.30 -0.35 0.15 -0.50 -0.05 -1.15 -0.40 -1.50z m-0.90 -4.15 c-0.50 -0.85 -0.50 -0.85 -0.55 0.10 0 0.55 0.20 1.55 0.40 2.25 l0.35 1.25 0.15 -1.35 c0.10 -0.75 -0.05 -1.75 -0.35 -2.25z"/>
 </g>
 <g fill="#495841">
  <path d="M237.70 195.95 c-0.15 -0.30 -0.15 -2.80 0.05 -5.50 l0.35 -4.95 -1.55 0 c-1.35 0 -1.55 -0.20 -1.55 -1.30 0 -1.35 0 -1.35 3.05 -1 1.70 0.15 3.75 0.30 4.55 0.30 1.25 0 1.45 0.20 1.30 1.10 -0.10 0.85 -0.50 1.10 -1.65 1.15 -1.45 0 -1.50 0.05 -1.60 2.75 -0.30 6.15 -0.65 8 -1.65 8 -0.50 0 -1.10 -0.25 -1.30 -0.55z"/>
  <path d="M245.85 191.15 c-0.55 -8.60 -0.55 -8.65 0.90 -8.65 1.15 0 1.25 0.20 1.25 2.20 l0 2.20 1.45 -0.55 c1.90 -0.70 3.90 0.15 4.55 1.95 0.30 0.70 0.50 2.85 0.50 4.75 0 3.35 -0.05 3.45 -1.25 3.45 -1.20 0 -1.25 -0.10 -1.25 -3.40 0 -3.50 -0.50 -4.60 -2.10 -4.60 -1.45 0 -2 1.80 -1.65 5.05 0.35 2.90 0.30 2.95 -0.85 2.95 -1.25 0 -1.25 -0.10 -1.55 -5.35z"/>
  <path d="M258.60 194.25 c-1.80 -1.50 -2.35 -3.30 -1.60 -5.50 0.70 -2.10 2.60 -3.35 5.15 -3.45 1.55 -0.05 2.20 0.25 3.15 1.35 0.65 0.80 1.20 1.95 1.20 2.60 0 1.30 -0.30 1.45 -4.60 2 -2.70 0.35 -3.05 1 -1.05 1.80 1.25 0.45 2.45 0.40 4.35 -0.35 0.60 -0.25 0.80 0 0.80 0.95 0 1.35 -1 1.85 -4.10 1.85 -1.20 0 -2.30 -0.40 -3.30 -1.25z m4.85 -5.20 c0.50 -0.35 0.40 -0.60 -0.45 -1.20 -1.30 -0.90 -3.15 -0.45 -3.40 0.85 -0.15 0.60 0.20 0.80 1.50 0.80 0.90 0 1.95 -0.20 2.35 -0.45z"/>
  <path d="M278.30 191.15 c-0.20 -0.80 -0.80 -3.15 -1.35 -5.25 -1 -3.75 -1.05 -3.85 -2.30 -3.35 -1.45 0.55 -2.15 0.25 -2.15 -1 0 -0.65 0.85 -1.10 3.90 -1.80 4.85 -1.20 4.80 -1.20 5 0.05 0.10 0.85 -0.20 1.15 -1.30 1.35 l-1.50 0.30 1.30 5.10 c1.05 4.25 1.15 5.10 0.55 5.50 -1.20 0.75 -1.85 0.50 -2.15 -0.90z"/>
  <path d="M286.75 189.40 c-1.80 -4.85 -3.65 -11.20 -3.40 -11.45 0.25 -0.20 0.80 -0.45 1.30 -0.55 0.75 -0.10 1.25 0.90 2.85 5.85 1.45 4.45 1.80 6.05 1.35 6.35 -0.90 0.60 -1.85 0.50 -2.10 -0.20z"/>
  <path d="M290.80 182.25 c-1.25 -3.15 -2.30 -5.95 -2.30 -6.25 0 -0.25 1.20 -0.80 2.70 -1.25 3.15 -0.90 4.65 -0.50 5.95 1.75 1.45 2.40 0.80 5.35 -1.45 6.55 -1.30 0.65 -1.50 1.50 -0.70 2.95 0.40 0.75 0.30 1.05 -0.45 1.50 -0.55 0.25 -1.10 0.50 -1.20 0.50 -0.15 0 -1.30 -2.60 -2.55 -5.75z m4.10 -1.35 c1.35 -1.35 0 -4.40 -1.95 -4.40 -1.35 0 -1.50 0.65 -0.60 2.95 0.80 2.10 1.50 2.50 2.55 1.45z"/>
  <path d="M259.50 183.35 c0 -1 1.10 -2.20 2.40 -2.60 1.30 -0.40 1.45 0.30 0.30 2 -0.85 1.30 -2.70 1.70 -2.70 0.60z"/>
  <path d="M302.20 178.40 c-2.70 -5.45 -2.55 -5.25 -3.30 -4.50 -0.85 0.85 -2.25 0.75 -2.60 -0.15 -0.40 -1.10 7.65 -5.15 8.25 -4.15 0.65 1 0.55 1.30 -0.65 1.95 -0.65 0.30 -1.20 0.65 -1.30 0.70 -0.10 0.05 0.90 2.25 2.15 4.80 2.10 4.35 2.25 4.75 1.45 5.30 -0.50 0.35 -1.05 0.65 -1.30 0.65 -0.20 0 -1.45 -2.10 -2.70 -4.60z"/>
  <path d="M311.50 177.15 c-2.70 -1 -4.90 -5.15 -4.20 -8 1.50 -6.10 9.75 -7.05 12.40 -1.40 2.50 5.25 -2.80 11.35 -8.20 9.40z m4.15 -2.70 c2.70 -1.20 2.95 -4.40 0.60 -6.75 -2.95 -2.95 -7.75 0.05 -6.30 3.95 0.65 1.60 2.50 3.35 3.60 3.35 0.50 0 1.45 -0.25 2.10 -0.55z"/>
  <path d="M321.30 166.15 c-2.05 -2.70 -3.80 -5.15 -3.80 -5.50 0 -1.05 3.60 -3.15 5.40 -3.15 1.25 0 2.10 0.40 3.20 1.60 1.30 1.40 1.45 1.90 1.25 3.55 -0.15 1.05 -0.75 2.45 -1.30 3.05 l-1.05 1.15 0.95 1.25 c1 1.25 1 1.30 0.10 2.10 -0.90 0.80 -1.10 0.65 -4.75 -4.05z m3.70 -3.25 c0 -1.80 -0.95 -2.90 -2.50 -2.90 -2.10 0 -2.15 0.60 -0.45 2.95 1.25 1.65 1.70 1.95 2.25 1.50 0.40 -0.30 0.70 -1 0.70 -1.55z"/>
 </g>
</svg>