<svg version="1.1" id="Layer_1" xmlns="http://www.w3.org/2000/svg" xmlns:xlink="http://www.w3.org/1999/xlink" x="0px" y="0px"
	 width="100%" viewBox="0 0 500 500" enable-background="new 0 0 500 500" xml:space="preserve">
<path fill="#FFFFFF" opacity="1.000000" stroke="none" 
	d="
M286.000000,501.000000 
	C190.666687,501.000000 95.833382,501.000000 1.000051,501.000000 
	C1.000034,334.333405 1.000034,167.666794 1.000017,1.000140 
	C167.666565,1.000094 334.333130,1.000094 500.999756,1.000047 
	C500.999847,167.666519 500.999847,334.333038 500.999939,500.999786 
	C429.500000,501.000000 358.000000,501.000000 286.000000,501.000000 
M254.552444,123.805099 
	C254.347412,123.539009 254.142395,123.272911 253.853348,122.327644 
	C250.347626,119.277374 246.664505,116.401901 243.412369,113.101723 
	C241.830032,111.496010 241.053040,109.096672 239.864563,106.361168 
	C239.801285,105.900604 239.738007,105.440048 240.359146,104.553452 
	C239.870605,101.491798 239.951035,98.184181 238.758911,95.426689 
	C237.010330,91.382118 233.219742,87.983231 232.301880,83.863075 
	C229.960022,73.350708 220.103699,72.196983 213.128036,68.576523 
	C207.561859,65.687599 200.268784,65.120857 192.986404,65.592766 
	C181.880600,66.312439 172.706802,70.551941 163.728607,76.064430 
	C162.334045,76.920677 161.882629,79.313034 160.263916,81.014870 
	C156.186157,85.328285 151.701050,89.337845 148.176102,94.063599 
	C145.886337,97.133400 145.073837,101.282051 143.456451,104.883118 
	C141.936127,108.268143 140.875854,112.181519 138.442001,114.754730 
	C135.255798,118.123413 130.896011,120.372513 127.095032,123.176392 
	C126.205856,123.832314 125.345360,124.672226 124.793251,125.615677 
	C121.886932,130.582016 118.786224,135.467361 116.323418,140.651810 
	C113.534142,146.523529 110.800484,152.526810 109.035759,158.754303 
	C106.672188,167.095062 105.222626,175.698013 103.496223,184.211838 
	C103.294739,185.205475 103.454803,186.690414 104.077919,187.365250 
	C108.035004,191.650833 108.566933,198.194611 115.717628,200.669601 
	C123.472916,203.353867 129.898956,209.745621 137.593124,212.767807 
	C152.427612,218.594604 167.727829,222.994141 183.710831,225.111053 
	C194.198257,226.500076 204.552567,228.963608 215.189346,227.884216 
	C220.250290,227.370667 225.187515,225.712906 230.243607,225.059570 
	C239.373779,223.879776 244.864822,219.127518 246.785629,210.081421 
	C247.672836,205.903152 248.403290,201.691483 249.300461,197.515503 
	C252.177963,184.121918 253.500885,170.707901 250.217270,157.168625 
	C249.955063,156.087433 249.840195,154.684250 250.307159,153.758835 
	C253.399017,147.631531 256.546356,141.524704 259.926575,135.553253 
	C261.929626,132.014679 261.245972,130.087982 257.002625,128.308624 
	C256.970642,127.875191 256.938660,127.441750 256.943207,126.305389 
	C256.293610,125.554924 255.643997,124.804451 254.552444,123.805099 
M367.993805,131.333939 
	C367.993286,130.889389 367.992767,130.444855 368.557526,129.487579 
	C368.164459,127.574646 368.346283,124.617912 367.236328,124.006592 
	C365.769043,123.198471 363.207245,123.962822 361.277039,124.566422 
	C360.130554,124.924950 359.397339,126.438164 358.291260,127.135521 
	C356.949127,127.981697 355.409760,128.515091 353.455719,129.413803 
	C354.535736,120.755379 354.754395,120.407547 358.833801,120.004135 
	C363.227783,119.569603 371.418793,110.352692 372.104675,105.841980 
	C372.601715,102.573288 374.522583,99.518486 374.999664,96.250229 
	C375.369110,93.719292 374.970612,90.796814 373.962677,88.458214 
	C373.432007,87.226997 370.591705,85.906357 369.260040,86.281097 
	C360.539551,88.735161 350.307465,87.171707 343.688416,95.470650 
	C343.552185,95.641396 343.073212,95.538750 341.621948,95.652031 
	C341.621948,93.612236 341.276093,91.582542 341.710846,89.736725 
	C342.236023,87.507095 343.428986,85.435898 344.321594,83.291420 
	C345.595886,80.230042 345.577637,77.120659 342.663239,75.265976 
	C340.594513,73.949440 337.840210,73.051720 335.412659,73.096352 
	C330.557312,73.185623 328.430420,76.885979 326.322235,81.104752 
	C325.085876,82.619751 324.133698,84.588081 322.564331,85.571899 
	C315.481567,90.011993 314.359436,96.985649 313.979828,104.395950 
	C313.816406,107.585503 311.887115,107.476486 309.871735,106.219231 
	C305.597351,103.552750 303.768585,105.778427 302.718964,109.609612 
	C302.330109,111.028954 301.961029,112.546410 302.052155,113.989487 
	C302.644409,123.367836 303.362183,132.738297 304.055542,142.110092 
	C304.091583,142.597519 304.158813,143.153244 304.415222,143.543259 
	C308.535065,149.809891 311.310883,157.219131 319.255524,160.161224 
	C322.862518,161.496979 323.035187,164.141098 322.352295,167.873749 
	C321.263123,173.827423 318.078461,178.249817 314.731964,182.987030 
	C310.027771,189.646164 307.465546,197.681229 300.341095,202.812210 
	C297.474030,204.876999 299.412292,208.464233 303.251770,208.980499 
	C307.813934,209.593979 310.994904,207.033630 313.470428,203.889008 
	C318.022186,198.106934 321.894958,191.781387 326.558014,186.098633 
	C330.486450,181.311157 335.044159,176.959396 342.757507,176.985992 
	C350.398621,176.630005 353.466705,169.742310 358.621887,165.842896 
	C361.208893,163.886047 364.501648,162.209503 365.987366,159.569016 
	C370.896942,150.843475 368.532776,141.296982 367.993805,131.333939 
M275.527161,261.094116 
	C280.429688,257.047577 281.633270,249.749771 278.244995,244.614838 
	C274.609741,239.105621 263.626007,239.040604 261.512848,245.108887 
	C260.097656,249.172836 260.473480,254.615906 261.986725,258.728455 
	C263.454803,262.718201 269.552704,263.298553 275.527161,261.094116 
M158.787292,254.698151 
	C159.758118,253.077118 160.728943,251.456085 161.699768,249.835052 
	C162.514023,251.574692 163.489166,253.261826 164.080841,255.074112 
	C164.423767,256.124481 164.206223,257.379303 164.142746,258.536774 
	C163.961639,261.839752 165.495728,262.637848 168.380325,261.610199 
	C170.752838,248.708679 169.260681,246.094284 159.234497,245.479919 
	C158.316635,239.729324 158.316635,239.729324 153.989655,239.839050 
	C153.989655,245.567627 153.814468,251.336761 154.098923,257.083160 
	C154.181732,258.755737 155.577515,260.363342 156.371445,262.000732 
	C157.167740,260.365265 158.002228,258.746582 158.733627,257.082611 
	C158.917892,256.663391 158.772263,256.099182 158.787292,254.698151 
M182.373657,258.857849 
	C180.661957,258.092041 178.950272,257.326233 177.238586,256.560425 
	C177.382828,256.130188 177.527084,255.699921 177.671341,255.269669 
	C180.875519,255.109100 184.079697,254.948532 187.082855,254.798050 
	C189.472336,246.982880 181.709991,246.704651 178.935043,243.105560 
	C178.172958,244.003464 177.381973,245.351212 176.228989,246.216797 
	C172.610596,248.933304 171.235260,254.048630 173.225418,258.154724 
	C175.021637,261.860687 179.506943,263.603333 183.898331,261.982300 
	C184.989426,261.579529 185.694092,260.129944 186.576385,259.161530 
	C185.418320,258.994385 184.260254,258.827271 182.373657,258.857849 
M236.144577,253.841507 
	C240.295654,251.814804 240.674591,248.293335 239.411514,244.528152 
	C238.182999,240.866058 232.991119,239.939880 225.382935,241.772476 
	C225.382935,248.299240 225.382935,254.881134 225.382935,261.611023 
	C232.152832,263.316284 228.832870,257.258911 230.621902,255.277054 
	C232.200394,254.893784 233.799194,254.505600 236.144577,253.841507 
M297.348755,243.136963 
	C293.309113,239.549011 288.744812,241.358383 283.994629,241.161163 
	C283.994629,246.996582 283.994049,252.126221 283.995270,257.255859 
	C283.995453,257.919373 283.751251,258.754608 284.060974,259.211517 
	C284.760834,260.243896 285.736328,261.089386 286.599701,262.010895 
	C287.348877,261.168335 288.435028,260.438782 288.764618,259.455566 
	C289.208466,258.131561 289.069214,256.612091 289.171051,255.295181 
	C298.239349,253.580215 300.101715,250.989716 297.348755,243.136963 
M198.103195,241.019775 
	C197.535812,241.843567 196.968445,242.667343 196.401062,243.491119 
	C198.066635,244.240219 199.732193,244.989334 202.068253,246.039993 
	C202.068253,249.944611 201.893814,254.409927 202.191010,258.843628 
	C202.265213,259.950562 203.859482,260.955566 204.755096,262.007385 
	C205.476608,260.969818 206.763962,259.962311 206.820862,258.889465 
	C207.056381,254.449860 206.919647,249.990509 206.919647,245.480026 
	C208.048828,245.236908 208.726578,245.215179 209.283966,244.945084 
	C210.441620,244.384079 211.535416,243.691360 212.655457,243.052765 
	C211.422058,242.362900 210.229599,241.186096 208.947250,241.078247 
	C205.644333,240.800476 202.301605,240.995880 198.103195,241.019775 
M149.968964,241.142609 
	C147.315231,241.093536 144.645416,240.844360 142.012650,241.056015 
	C139.734589,241.239182 137.498581,241.945480 135.244003,242.420532 
	C136.919968,243.720932 138.595947,245.021317 141.112900,246.974228 
	C141.112900,251.074875 141.112900,256.324524 141.112900,261.529907 
	C145.617676,261.830536 145.712494,261.832703 145.789185,258.482941 
	C145.887161,254.203918 145.812943,249.920959 145.812943,245.639679 
	C146.278946,245.854782 146.744934,246.069870 147.210938,246.284958 
	C148.376099,244.732376 149.541260,243.179794 149.968964,241.142609 
M247.212387,254.439758 
	C247.206055,255.766068 246.905807,257.181396 247.273254,258.394501 
	C247.667496,259.696075 248.689484,260.807526 249.437531,262.001923 
	C250.298691,260.772034 251.807144,259.590057 251.902451,258.303436 
	C252.217102,254.055557 252.021027,249.769836 252.021027,245.452118 
	C253.156769,245.215149 253.835770,245.198929 254.393845,244.930893 
	C255.553558,244.373932 256.649170,243.683472 257.771118,243.047882 
	C256.540527,242.364487 255.353195,241.208862 254.070755,241.091339 
	C250.947067,240.805130 247.772369,240.885269 244.633636,241.074127 
	C243.730804,241.128448 242.880478,242.055466 242.006088,242.582382 
	C242.804443,243.369034 243.512146,244.295395 244.433197,244.892883 
	C245.041336,245.287384 245.956100,245.209213 247.212585,245.424866 
	C247.212585,248.253860 247.212585,250.868362 247.212387,254.439758 
M215.863739,247.612457 
	C215.864670,251.610886 215.759979,255.614502 215.955261,259.603424 
	C215.994522,260.405457 217.173187,261.151733 217.826508,261.923706 
	C218.545776,261.233521 219.867889,260.561188 219.888901,259.850372 
	C220.056076,254.191467 220.033829,248.523804 219.888840,242.863449 
	C219.873291,242.257004 218.715881,241.233505 218.061798,241.212158 
	C217.373764,241.189713 216.234116,242.017471 216.039200,242.690231 
	C215.680450,243.928619 215.869064,245.325546 215.863739,247.612457 
z"/>
<path fill="#FDFDF7" opacity="1.000000" stroke="none" 
	d="
M327.004883,81.005341 
	C328.430420,76.885979 330.557312,73.185623 335.412659,73.096352 
	C337.840210,73.051720 340.594513,73.949440 342.663239,75.265976 
	C345.577637,77.120659 345.595886,80.230042 344.321594,83.291420 
	C343.428986,85.435898 342.236023,87.507095 341.710846,89.736725 
	C341.276093,91.582542 341.621948,93.612236 341.621948,95.652031 
	C343.073212,95.538750 343.552185,95.641396 343.688416,95.470650 
	C350.307465,87.171707 360.539551,88.735161 369.260040,86.281097 
	C370.591705,85.906357 373.432007,87.226997 373.962677,88.458214 
	C374.970612,90.796814 375.369110,93.719292 374.999664,96.250229 
	C374.522583,99.518486 372.601715,102.573288 372.104675,105.841980 
	C371.418793,110.352692 363.227783,119.569603 358.833801,120.004135 
	C354.754395,120.407547 354.535736,120.755379 353.455719,129.413803 
	C355.409760,128.515091 356.949127,127.981697 358.291260,127.135521 
	C359.397339,126.438164 360.130554,124.924950 361.277039,124.566422 
	C363.207245,123.962822 365.769043,123.198471 367.236328,124.006592 
	C368.346283,124.617912 368.164459,127.574646 367.969482,129.594727 
	C363.154663,127.421967 360.962494,128.425644 359.852905,133.352051 
	C358.141418,134.468796 356.599396,135.304672 354.881927,135.883743 
	C354.178864,136.178314 353.651245,136.729691 352.889832,137.514526 
	C350.125610,139.204483 347.595184,140.660995 344.833069,141.825989 
	C341.749115,141.352737 338.896851,141.170975 335.993225,140.600189 
	C335.910980,139.165512 335.880066,138.119888 336.152374,136.835754 
	C335.264160,132.388763 334.072662,128.180283 332.893219,123.614120 
	C332.904114,122.540749 332.902954,121.825066 332.929657,120.743835 
	C332.295074,119.591660 331.632568,118.805031 330.963409,117.675934 
	C330.628113,116.539230 330.299469,115.744995 329.970886,114.637405 
	C330.007355,113.908226 330.043762,113.492386 330.410828,112.990501 
	C331.146667,111.927200 331.551819,110.949951 332.329651,109.909256 
	C334.729370,107.545235 335.084076,105.491280 331.848206,103.636826 
	C331.961121,102.874504 332.061432,102.444031 332.513306,101.957275 
	C334.235046,99.137634 335.750031,96.429573 336.845245,93.561211 
	C337.048492,93.028915 335.560669,91.850922 334.861176,90.640808 
	C334.956512,89.880363 335.044006,89.450035 335.474182,88.972000 
	C337.293091,87.011604 338.691376,85.031982 340.263885,83.202057 
	C342.572510,80.515533 341.505310,78.273201 339.325592,76.391708 
	C336.909515,74.306198 334.630615,74.726982 332.360291,77.057213 
	C330.833130,78.624619 328.807526,79.706345 327.004883,81.005341 
M341.655151,113.302498 
	C341.710724,113.893639 341.766266,114.484779 341.723694,115.674072 
	C341.706696,116.077248 341.689728,116.480423 341.317078,117.508812 
	C341.317078,118.771553 341.317078,120.034302 341.317078,122.267296 
	C346.295013,120.667381 351.092560,120.033821 354.868347,117.727531 
	C363.389404,112.522827 368.067871,104.377808 369.572174,94.510643 
	C370.015137,91.605148 368.481262,91.014008 365.336090,91.963753 
	C364.885834,91.993004 364.435608,92.022255 363.681366,91.646698 
	C363.145355,91.828491 362.609314,92.010292 361.356903,92.169930 
	C359.222778,93.078163 357.088684,93.986397 354.267853,95.016586 
	C352.168060,97.006798 350.068268,98.997009 347.372711,101.325928 
	C345.604340,105.224648 343.835999,109.123360 341.655151,113.302498 
z"/>
<path fill="#FEFAD2" opacity="1.000000" stroke="none" 
	d="
M257.019684,128.958908 
	C261.245972,130.087982 261.929626,132.014679 259.926575,135.553253 
	C256.546356,141.524704 253.399017,147.631531 250.307159,153.758835 
	C249.840195,154.684250 249.955063,156.087433 250.217270,157.168625 
	C253.500885,170.707901 252.177963,184.121918 249.300461,197.515503 
	C248.403290,201.691483 247.672836,205.903152 246.785629,210.081421 
	C244.864822,219.127518 239.373779,223.879776 230.243607,225.059570 
	C225.187515,225.712906 220.250290,227.370667 215.189346,227.884216 
	C204.552567,228.963608 194.198257,226.500076 183.710831,225.111053 
	C167.727829,222.994141 152.427612,218.594604 137.593124,212.767807 
	C129.898956,209.745621 123.472916,203.353867 115.717628,200.669601 
	C108.566933,198.194611 108.035004,191.650833 104.077919,187.365250 
	C103.454803,186.690414 103.294739,185.205475 103.496223,184.211838 
	C105.222626,175.698013 106.672188,167.095062 109.035759,158.754303 
	C110.800484,152.526810 113.534142,146.523529 116.323418,140.651810 
	C118.786224,135.467361 121.886932,130.582016 124.793251,125.615677 
	C125.345360,124.672226 126.205856,123.832314 127.095032,123.176392 
	C130.896011,120.372513 135.255798,118.123413 138.442001,114.754730 
	C140.875854,112.181519 141.936127,108.268143 143.456451,104.883118 
	C145.073837,101.282051 145.886337,97.133400 148.176102,94.063599 
	C151.701050,89.337845 156.186157,85.328285 160.728317,81.104034 
	C161.192719,81.193199 161.390381,81.391350 161.286011,81.716339 
	C156.581863,88.740929 151.656601,95.246117 147.497528,102.208961 
	C144.758423,106.794586 143.122971,112.039444 140.684372,117.031342 
	C139.892929,117.666389 139.410416,118.259193 138.579559,118.918930 
	C135.819763,121.152946 133.302277,123.214203 131.015366,125.505585 
	C121.462860,135.076752 115.324608,146.482742 112.575333,160.042633 
	C111.245766,163.850540 110.213326,167.438354 109.131989,171.395325 
	C109.058197,172.508469 109.033287,173.252441 108.848801,174.344971 
	C108.480515,176.468063 108.271812,178.242630 108.032143,180.344666 
	C107.991119,181.110458 107.981071,181.548767 107.719002,182.215958 
	C108.251373,184.390884 109.035759,186.336914 109.832848,188.638489 
	C110.317406,189.978668 110.789268,190.963318 111.372513,192.198059 
	C112.033569,192.931183 112.583244,193.414185 113.219856,194.225433 
	C115.866158,196.374969 118.425522,198.196289 120.992134,200.009125 
	C120.999390,200.000610 120.987053,200.015091 121.165741,200.302826 
	C127.222610,203.409561 133.100784,206.228577 139.271729,209.084106 
	C139.954575,209.171509 140.344666,209.222382 140.865753,209.594727 
	C143.643875,211.106232 146.191223,212.657639 148.956131,213.420883 
	C158.604477,216.084259 168.328049,218.475082 178.350586,220.988678 
	C179.115463,221.017929 179.552811,221.027969 180.254181,221.316208 
	C183.715912,221.999863 186.913605,222.405319 190.305740,222.827682 
	C190.500198,222.844574 190.869949,222.713928 191.218842,222.796600 
	C192.044052,222.915710 192.520401,222.952164 193.276840,223.285782 
	C196.717087,223.696030 199.877243,223.809113 203.407501,223.948090 
	C204.519333,223.974365 205.261078,223.974762 206.259521,224.252472 
	C208.678696,224.355408 210.841141,224.181015 213.400650,224.016113 
	C214.854584,223.995911 215.911484,223.966217 217.415482,223.974335 
	C223.134842,223.056702 228.567932,222.611465 233.637497,221.013138 
	C239.606384,219.131226 242.849747,214.511627 243.141907,207.814209 
	C243.178360,207.380951 243.179764,207.206696 243.445068,206.796799 
	C245.478622,198.226471 248.295364,189.947693 248.744186,181.542496 
	C249.266785,171.755951 247.717041,161.858765 247.192566,151.725052 
	C247.933578,150.362061 248.548630,149.283600 249.485870,148.094910 
	C250.221222,147.002899 250.634415,146.021133 251.043106,145.030228 
	C251.038620,145.021072 251.046783,145.048096 251.359283,144.884521 
	C253.437225,140.485657 255.202667,136.250381 257.209717,131.850464 
	C257.307465,130.776855 257.163574,129.867889 257.019684,128.958908 
z"/>
<path fill="#F9F8EB" opacity="1.000000" stroke="none" 
	d="
M326.663574,81.055054 
	C328.807526,79.706345 330.833130,78.624619 332.360291,77.057213 
	C334.630615,74.726982 336.909515,74.306198 339.325592,76.391708 
	C341.505310,78.273201 342.572510,80.515533 340.263885,83.202057 
	C338.691376,85.031982 337.293091,87.011604 335.479919,88.589951 
	C335.835999,85.661469 336.529053,83.067345 337.434570,79.677856 
	C329.597137,81.452072 325.534515,86.178215 322.053619,91.496422 
	C317.373871,98.646332 317.891998,106.901596 323.155579,114.129227 
	C323.399384,116.402626 323.700165,118.264870 323.705719,119.954041 
	C317.760345,115.965996 312.110168,112.151024 306.460022,108.336052 
	C305.893066,118.947037 306.221039,128.510712 307.047638,138.031082 
	C307.694000,145.475403 315.159576,154.549377 323.909149,157.476288 
	C327.159088,159.262680 327.702209,161.818573 326.588104,164.670685 
	C324.261230,170.627426 322.004211,176.642822 319.165497,182.359543 
	C316.246277,188.238449 312.668732,193.790482 308.654724,200.739838 
	C310.635468,199.407303 311.615051,199.052963 312.127655,198.355438 
	C316.391785,192.553131 320.569794,186.687500 325.171631,180.886673 
	C327.402924,179.650833 329.236420,178.369339 331.389648,177.013779 
	C333.149109,176.107559 334.588776,175.275406 336.410278,174.370789 
	C339.196564,173.538849 341.601074,172.779373 343.970184,172.361816 
	C343.286407,174.132462 342.637970,175.561188 341.989563,176.989899 
	C335.044159,176.959396 330.486450,181.311157 326.558014,186.098633 
	C321.894958,191.781387 318.022186,198.106934 313.470428,203.889008 
	C310.994904,207.033630 307.813934,209.593979 303.251770,208.980499 
	C299.412292,208.464233 297.474030,204.876999 300.341095,202.812210 
	C307.465546,197.681229 310.027771,189.646164 314.731964,182.987030 
	C318.078461,178.249817 321.263123,173.827423 322.352295,167.873749 
	C323.035187,164.141098 322.862518,161.496979 319.255524,160.161224 
	C311.310883,157.219131 308.535065,149.809891 304.415222,143.543259 
	C304.158813,143.153244 304.091583,142.597519 304.055542,142.110092 
	C303.362183,132.738297 302.644409,123.367836 302.052155,113.989487 
	C301.961029,112.546410 302.330109,111.028954 302.718964,109.609612 
	C303.768585,105.778427 305.597351,103.552750 309.871735,106.219231 
	C311.887115,107.476486 313.816406,107.585503 313.979828,104.395950 
	C314.359436,96.985649 315.481567,90.011993 322.564331,85.571899 
	C324.133698,84.588081 325.085876,82.619751 326.663574,81.055054 
z"/>
<path fill="#FEFAD2" opacity="1.000000" stroke="none" 
	d="
M161.093903,81.094124 
	C161.882629,79.313034 162.334045,76.920677 163.728607,76.064430 
	C172.706802,70.551941 181.880600,66.312439 192.986404,65.592766 
	C200.268784,65.120857 207.561859,65.687599 213.128036,68.576523 
	C220.103699,72.196983 229.960022,73.350708 232.301880,83.863075 
	C233.219742,87.983231 237.010330,91.382118 238.758911,95.426689 
	C239.951035,98.184181 239.870605,101.491798 239.774109,104.555420 
	C238.078400,102.006821 236.876236,99.491577 235.875320,96.898643 
	C233.496170,90.735413 230.746307,84.854324 224.989746,81.012230 
	C224.993790,81.001999 224.980927,81.013786 224.858704,80.697800 
	C213.771896,67.750351 199.490967,66.956642 184.428802,69.241989 
	C183.468948,69.387619 182.719131,70.917328 181.868805,71.828415 
	C181.865997,71.853683 181.909790,71.879478 181.543793,71.862869 
	C180.446579,71.909843 179.715378,71.973427 178.689468,72.042557 
	C177.924973,72.353584 177.455170,72.659058 176.607895,72.971512 
	C173.146164,74.977791 170.061905,76.977097 166.983398,78.984055 
	C166.989136,78.991722 166.974991,78.970848 166.626862,79.006882 
	C164.649261,79.825729 163.019821,80.608536 161.390381,81.391342 
	C161.390381,81.391350 161.192719,81.193199 161.093903,81.094124 
z"/>
<path fill="#ACACAC" opacity="1.000000" stroke="none" 
	d="
M275.185059,261.253998 
	C269.552704,263.298553 263.454803,262.718201 261.986725,258.728455 
	C260.473480,254.615906 260.097656,249.172836 261.512848,245.108887 
	C263.626007,239.040604 274.609741,239.105621 278.244995,244.614838 
	C281.633270,249.749771 280.429688,257.047577 275.185059,261.253998 
M274.950348,248.914673 
	C274.084747,244.761047 271.053802,243.954910 267.823242,245.246796 
	C263.588013,246.940460 264.777191,251.034912 265.124939,254.334366 
	C265.473175,257.638214 268.070312,258.654175 270.973969,258.072327 
	C275.742889,257.116730 274.890045,253.133621 274.950348,248.914673 
z"/>
<path fill="#F5E389" opacity="1.000000" stroke="none" 
	d="
M224.985718,81.022461 
	C230.746307,84.854324 233.496170,90.735413 235.875320,96.898643 
	C236.876236,99.491577 238.078400,102.006821 239.431900,104.768433 
	C239.738007,105.440048 239.801285,105.900604 239.880615,107.163101 
	C239.944931,110.709816 239.650116,113.520935 240.163544,116.175766 
	C240.499008,117.910393 242.006744,119.418312 243.234741,121.300751 
	C245.653534,122.042130 247.826965,122.510529 250.292664,123.013824 
	C250.976547,123.073891 251.368134,123.099068 251.859253,123.443703 
	C252.929291,124.581543 253.899796,125.399918 254.886368,126.415115 
	C254.902435,126.611931 254.942383,127.004852 254.978363,127.354111 
	C255.665619,129.140610 256.316864,130.577850 256.968109,132.015106 
	C255.202667,136.250381 253.437225,140.485657 251.343079,144.475647 
	C251.493454,142.507568 251.955185,140.779709 252.455505,139.063110 
	C253.336060,136.041992 253.906662,132.854736 250.144470,131.589111 
	C245.832657,130.138580 242.851105,127.226326 239.861267,123.647415 
	C238.819489,120.720810 237.138763,118.118607 237.167648,115.535515 
	C237.293442,104.289009 234.463501,94.312668 226.616409,85.932838 
	C225.545807,84.789574 225.503906,82.683014 224.985718,81.022461 
z"/>
<path fill="#FDFDF7" opacity="1.000000" stroke="none" 
	d="
M342.373535,176.987946 
	C342.637970,175.561188 343.286407,174.132462 344.270996,172.185577 
	C357.401672,164.391434 367.606445,150.573318 364.829407,136.993835 
	C366.116211,135.315125 367.052155,133.657944 367.988129,132.000778 
	C368.532776,141.296982 370.896942,150.843475 365.987366,159.569016 
	C364.501648,162.209503 361.208893,163.886047 358.621887,165.842896 
	C353.466705,169.742310 350.398621,176.630005 342.373535,176.987946 
z"/>
<path fill="#ACACAC" opacity="1.000000" stroke="none" 
	d="
M158.782761,255.149887 
	C158.772263,256.099182 158.917892,256.663391 158.733627,257.082611 
	C158.002228,258.746582 157.167740,260.365265 156.371445,262.000732 
	C155.577515,260.363342 154.181732,258.755737 154.098923,257.083160 
	C153.814468,251.336761 153.989655,245.567627 153.989655,239.839050 
	C158.316635,239.729324 158.316635,239.729324 159.234497,245.479919 
	C169.260681,246.094284 170.752838,248.708679 168.380325,261.610199 
	C165.495728,262.637848 163.961639,261.839752 164.142746,258.536774 
	C164.206223,257.379303 164.423767,256.124481 164.080841,255.074112 
	C163.489166,253.261826 162.514023,251.574692 161.699768,249.835052 
	C160.728943,251.456085 159.758118,253.077118 158.782761,255.149887 
z"/>
<path fill="#ACACAC" opacity="1.000000" stroke="none" 
	d="
M182.737915,258.759003 
	C184.260254,258.827271 185.418320,258.994385 186.576385,259.161530 
	C185.694092,260.129944 184.989426,261.579529 183.898331,261.982300 
	C179.506943,263.603333 175.021637,261.860687 173.225418,258.154724 
	C171.235260,254.048630 172.610596,248.933304 176.228989,246.216797 
	C177.381973,245.351212 178.172958,244.003464 178.935043,243.105560 
	C181.709991,246.704651 189.472336,246.982880 187.082855,254.798050 
	C184.079697,254.948532 180.875519,255.109100 177.671341,255.269669 
	C177.527084,255.699921 177.382828,256.130188 177.238586,256.560425 
	C178.950272,257.326233 180.661957,258.092041 182.737915,258.759003 
z"/>
<path fill="#ACACAC" opacity="1.000000" stroke="none" 
	d="
M235.771271,253.979462 
	C233.799194,254.505600 232.200394,254.893784 230.621902,255.277054 
	C228.832870,257.258911 232.152832,263.316284 225.382935,261.611023 
	C225.382935,254.881134 225.382935,248.299240 225.382935,241.772476 
	C232.991119,239.939880 238.182999,240.866058 239.411514,244.528152 
	C240.674591,248.293335 240.295654,251.814804 235.771271,253.979462 
M235.014938,248.323898 
	C233.795822,247.240585 232.576721,246.157272 231.357620,245.073959 
	C230.798569,246.823288 230.239532,248.572601 229.680481,250.321930 
	C230.085297,250.602066 230.490097,250.882202 230.894897,251.162338 
	C232.202759,250.479568 233.510620,249.796799 235.014938,248.323898 
z"/>
<path fill="#ACACAC" opacity="1.000000" stroke="none" 
	d="
M297.603760,243.441132 
	C300.101715,250.989716 298.239349,253.580215 289.171051,255.295181 
	C289.069214,256.612091 289.208466,258.131561 288.764618,259.455566 
	C288.435028,260.438782 287.348877,261.168335 286.599701,262.010895 
	C285.736328,261.089386 284.760834,260.243896 284.060974,259.211517 
	C283.751251,258.754608 283.995453,257.919373 283.995270,257.255859 
	C283.994049,252.126221 283.994629,246.996582 283.994629,241.161163 
	C288.744812,241.358383 293.309113,239.549011 297.603760,243.441132 
M291.052368,250.810364 
	C291.956116,249.458298 292.859863,248.106232 293.763611,246.754181 
	C292.415131,246.081924 291.066681,245.409668 289.718201,244.737396 
	C289.296448,245.148148 288.874664,245.558884 288.452911,245.969620 
	C289.054138,247.598694 289.655365,249.227753 291.052368,250.810364 
z"/>
<path fill="#ACACAC" opacity="1.000000" stroke="none" 
	d="
M198.539001,241.011002 
	C202.301605,240.995880 205.644333,240.800476 208.947250,241.078247 
	C210.229599,241.186096 211.422058,242.362900 212.655457,243.052765 
	C211.535416,243.691360 210.441620,244.384079 209.283966,244.945084 
	C208.726578,245.215179 208.048828,245.236908 206.919647,245.480026 
	C206.919647,249.990509 207.056381,254.449860 206.820862,258.889465 
	C206.763962,259.962311 205.476608,260.969818 204.755096,262.007385 
	C203.859482,260.955566 202.265213,259.950562 202.191010,258.843628 
	C201.893814,254.409927 202.068253,249.944611 202.068253,246.039993 
	C199.732193,244.989334 198.066635,244.240219 196.401062,243.491119 
	C196.968445,242.667343 197.535812,241.843567 198.539001,241.011002 
z"/>
<path fill="#ACACAC" opacity="1.000000" stroke="none" 
	d="
M150.337692,241.384918 
	C149.541260,243.179794 148.376099,244.732376 147.210938,246.284958 
	C146.744934,246.069870 146.278946,245.854782 145.812943,245.639679 
	C145.812943,249.920959 145.887161,254.203918 145.789185,258.482941 
	C145.712494,261.832703 145.617676,261.830536 141.112900,261.529907 
	C141.112900,256.324524 141.112900,251.074875 141.112900,246.974228 
	C138.595947,245.021317 136.919968,243.720932 135.244003,242.420532 
	C137.498581,241.945480 139.734589,241.239182 142.012650,241.056015 
	C144.645416,240.844360 147.315231,241.093536 150.337692,241.384918 
z"/>
<path fill="#ACACAC" opacity="1.000000" stroke="none" 
	d="
M247.212494,253.961304 
	C247.212585,250.868362 247.212585,248.253860 247.212585,245.424866 
	C245.956100,245.209213 245.041336,245.287384 244.433197,244.892883 
	C243.512146,244.295395 242.804443,243.369034 242.006088,242.582382 
	C242.880478,242.055466 243.730804,241.128448 244.633636,241.074127 
	C247.772369,240.885269 250.947067,240.805130 254.070755,241.091339 
	C255.353195,241.208862 256.540527,242.364487 257.771118,243.047882 
	C256.649170,243.683472 255.553558,244.373932 254.393845,244.930893 
	C253.835770,245.198929 253.156769,245.215149 252.021027,245.452118 
	C252.021027,249.769836 252.217102,254.055557 251.902451,258.303436 
	C251.807144,259.590057 250.298691,260.772034 249.437531,262.001923 
	C248.689484,260.807526 247.667496,259.696075 247.273254,258.394501 
	C246.905807,257.181396 247.206055,255.766068 247.212494,253.961304 
z"/>
<path fill="#A7A6A5" opacity="1.000000" stroke="none" 
	d="
M215.846649,247.134430 
	C215.869064,245.325546 215.680450,243.928619 216.039200,242.690231 
	C216.234116,242.017471 217.373764,241.189713 218.061798,241.212158 
	C218.715881,241.233505 219.873291,242.257004 219.888840,242.863449 
	C220.033829,248.523804 220.056076,254.191467 219.888901,259.850372 
	C219.867889,260.561188 218.545776,261.233521 217.826508,261.923706 
	C217.173187,261.151733 215.994522,260.405457 215.955261,259.603424 
	C215.759979,255.614502 215.864670,251.610886 215.846649,247.134430 
z"/>
<path fill="#FEFAD2" opacity="1.000000" stroke="none" 
	d="
M251.759720,123.124237 
	C251.368134,123.099068 250.976547,123.073891 250.241425,122.674850 
	C247.863724,120.418831 246.140747,116.848114 242.989380,121.027786 
	C242.006744,119.418312 240.499008,117.910393 240.163544,116.175766 
	C239.650116,113.520935 239.944931,110.709816 239.904053,107.510818 
	C241.053040,109.096672 241.830032,111.496010 243.412369,113.101723 
	C246.664505,116.401901 250.347626,119.277374 253.533722,122.670914 
	C252.729309,123.050865 252.244522,123.087547 251.759720,123.124237 
z"/>
<path fill="#F9F8EB" opacity="1.000000" stroke="none" 
	d="
M367.990967,131.667358 
	C367.052155,133.657944 366.116211,135.315125 364.691132,136.617706 
	C364.069641,134.732605 363.937286,133.202072 363.787415,131.469254 
	C362.314362,132.095993 361.168365,132.583588 360.022369,133.071182 
	C360.962494,128.425644 363.154663,127.421967 367.686859,129.851074 
	C367.992767,130.444855 367.993286,130.889389 367.990967,131.667358 
z"/>
<path fill="#FDF9CF" opacity="1.000000" stroke="none" 
	d="
M257.209717,131.850464 
	C256.316864,130.577850 255.665619,129.140610 255.307098,127.352844 
	C256.035431,127.004318 256.471069,127.006317 256.906677,127.008316 
	C256.938660,127.441750 256.970642,127.875191 257.011169,128.633759 
	C257.163574,129.867889 257.307465,130.776855 257.209717,131.850464 
z"/>
<path fill="#FDF9CF" opacity="1.000000" stroke="none" 
	d="
M251.859253,123.443703 
	C252.244522,123.087547 252.729309,123.050865 253.575745,123.010498 
	C254.142395,123.272911 254.347412,123.539009 254.769531,124.289352 
	C254.947845,125.255173 254.909088,125.736732 254.870300,126.218292 
	C253.899796,125.399918 252.929291,124.581543 251.859253,123.443703 
z"/>
<path fill="#FEFAD2" opacity="1.000000" stroke="none" 
	d="
M254.886383,126.415115 
	C254.909088,125.736732 254.947845,125.255173 254.990494,124.413795 
	C255.643997,124.804451 256.293610,125.554924 256.924927,126.656845 
	C256.471069,127.006317 256.035431,127.004318 255.271103,127.003586 
	C254.942383,127.004852 254.902435,126.611931 254.886383,126.415115 
z"/>
<path fill="#ADAB9E" opacity="1.000000" stroke="none" 
	d="
M323.779022,157.123672 
	C315.159576,154.549377 307.694000,145.475403 307.047638,138.031082 
	C306.221039,128.510712 305.893066,118.947037 306.460022,108.336052 
	C312.110168,112.151024 317.760345,115.965996 323.846344,120.245216 
	C326.849518,123.496719 329.416870,126.283974 332.205933,129.327759 
	C333.568115,132.080963 334.708588,134.577606 335.849121,137.074249 
	C335.880066,138.119888 335.910980,139.165512 335.932800,141.038788 
	C335.740540,143.901474 335.557373,145.936554 335.158020,148.171631 
	C333.913940,150.564896 332.886078,152.758163 331.509003,154.889114 
	C330.274689,152.856827 329.389557,150.886871 327.911133,147.596375 
	C327.911133,151.773605 327.911133,154.520279 327.911133,157.573486 
	C326.286835,157.396667 325.032928,157.260178 323.779022,157.123672 
M317.972076,126.395401 
	C317.651917,125.927567 317.331787,125.459724 317.003998,124.331383 
	C316.004730,123.552063 315.005463,122.772751 313.253204,122.084496 
	C312.168457,124.070961 310.198029,126.045921 310.172028,128.046127 
	C310.105347,133.180359 309.805969,138.780197 311.691162,143.326614 
	C313.270599,147.135544 317.803986,149.719604 321.135681,152.949081 
	C325.348297,145.205750 324.844086,145.520081 320.811615,139.051514 
	C317.772461,134.176285 316.236359,128.364090 314.544586,123.329430 
	C315.358978,123.890457 316.173401,124.451485 317.034454,125.605408 
	C317.353729,126.072044 317.673004,126.538681 318.080994,127.644218 
	C318.716583,128.100281 319.352203,128.556351 320.012665,129.497269 
	C320.135529,129.773727 320.258362,130.050201 320.381226,130.326660 
	C320.505951,130.237350 320.744232,130.077148 320.739075,130.068893 
	C320.509827,129.701645 320.259186,129.347748 319.924164,128.352600 
	C319.285614,127.898842 318.647095,127.445084 317.972076,126.395401 
M324.101044,137.296021 
	C324.190948,137.345383 324.280884,137.394730 324.370789,137.444077 
	C324.251251,137.292892 324.131714,137.141708 324.000214,136.280045 
	C323.364899,135.002930 322.729553,133.725830 322.094238,132.448715 
	C321.601593,132.790802 321.108917,133.132904 320.616241,133.475006 
	C321.740814,134.654236 322.865356,135.833481 324.101044,137.296021 
M327.170044,145.015793 
	C327.268127,145.432190 327.366211,145.848587 327.464325,146.264984 
	C327.587372,146.172867 327.824921,146.064835 327.814667,145.991287 
	C327.755798,145.568253 327.638275,145.153397 327.170044,145.015793 
M326.473206,142.397461 
	C326.528839,142.175323 326.584442,141.953171 326.640045,141.731018 
	C326.502258,141.873611 326.364502,142.016205 326.473206,142.397461 
z"/>
<path fill="#AFAC9F" opacity="1.000000" stroke="none" 
	d="
M359.852905,133.352051 
	C361.168365,132.583588 362.314362,132.095993 363.787415,131.469254 
	C363.937286,133.202072 364.069641,134.732605 364.340332,136.639252 
	C367.606445,150.573318 357.401672,164.391434 344.306396,171.843658 
	C341.601074,172.779373 339.196564,173.538849 336.488647,174.009628 
	C336.458038,172.814941 336.730835,171.908951 337.224548,170.896759 
	C337.721191,170.590622 337.905884,170.326904 338.350708,169.964188 
	C340.135040,167.949402 341.568115,165.969818 343.107300,163.772308 
	C343.410675,163.282440 343.669830,163.097031 344.186096,163.245163 
	C346.919006,160.645309 349.456787,157.798462 352.048157,154.545380 
	C352.146149,153.981003 352.221893,153.824509 352.230347,153.664459 
	C352.383453,150.764923 352.528473,147.864960 352.675201,144.965088 
	C350.525543,144.907257 348.369598,144.922729 346.230865,144.738190 
	C345.719177,144.694031 345.264984,143.983627 344.820679,143.333527 
	C344.959259,142.771179 345.028503,142.447861 345.064758,142.117493 
	C347.595184,140.660995 350.125610,139.204483 353.170532,137.441315 
	C354.142517,136.803284 354.599945,136.471909 355.057404,136.140533 
	C356.599396,135.304672 358.141418,134.468796 359.852905,133.352051 
z"/>
<path fill="#AFAC9F" opacity="1.000000" stroke="none" 
	d="
M323.212555,113.718071 
	C317.891998,106.901596 317.373871,98.646332 322.053619,91.496422 
	C325.534515,86.178215 329.597137,81.452072 337.434570,79.677856 
	C336.529053,83.067345 335.835999,85.661469 335.137207,88.637650 
	C335.044006,89.450035 334.956512,89.880363 334.618042,90.908661 
	C333.631927,95.008942 332.896820,98.511246 332.161713,102.013557 
	C332.061432,102.444031 331.961121,102.874504 331.628113,103.904076 
	C331.231506,105.662132 331.067596,106.821098 330.659546,108.260780 
	C330.303680,110.053185 330.191925,111.564873 330.080170,113.076553 
	C330.043762,113.492386 330.007355,113.908226 329.713074,114.862808 
	C326.016174,119.876564 325.401886,113.877052 323.212555,113.718071 
M325.542999,93.223450 
	C325.565979,93.594421 325.588959,93.965401 325.611969,94.336372 
	C325.753998,93.899872 325.896027,93.463364 326.445465,92.758820 
	C326.424225,92.390556 326.403015,92.022285 326.381775,91.654022 
	C326.239380,92.087692 326.097015,92.521370 325.542999,93.223450 
M323.982147,101.505402 
	C323.982147,102.950386 323.982147,104.395378 323.982147,105.840363 
	C324.251190,105.818535 324.520203,105.796707 324.789246,105.774872 
	C324.789246,102.870163 324.789246,99.965454 324.789246,97.060745 
	C324.605591,97.052818 324.421936,97.044899 324.238312,97.036972 
	C324.152893,98.252327 324.067474,99.467690 323.982147,101.505402 
M325.532074,108.726089 
	C325.401093,109.131447 325.248260,109.532013 325.157715,109.946198 
	C325.139709,110.028580 325.360321,110.163132 325.470917,110.273636 
	C325.601379,109.868774 325.731842,109.463905 325.532074,108.726089 
M327.521759,89.392990 
	C327.521759,89.392990 327.602783,89.524124 327.521759,89.392990 
z"/>
<path fill="#B5B1A2" opacity="1.000000" stroke="none" 
	d="
M366.008911,92.047554 
	C368.481262,91.014008 370.015137,91.605148 369.572174,94.510643 
	C368.067871,104.377808 363.389404,112.522827 354.868347,117.727531 
	C351.092560,120.033821 346.295013,120.667381 341.317078,122.267296 
	C341.317078,120.034302 341.317078,118.771553 341.872437,117.209236 
	C343.129303,116.521034 343.974976,116.272675 344.510437,115.722466 
	C351.198639,108.850105 357.864075,101.955093 364.465363,94.999443 
	C365.200470,94.224846 365.504791,93.041397 366.008911,92.047554 
z"/>
<path fill="#ADAB9E" opacity="1.000000" stroke="none" 
	d="
M365.672485,92.005653 
	C365.504791,93.041397 365.200470,94.224846 364.465363,94.999443 
	C357.864075,101.955093 351.198639,108.850105 344.510437,115.722466 
	C343.974976,116.272675 343.129303,116.521034 342.050262,116.896629 
	C341.689728,116.480423 341.706696,116.077248 342.021484,115.240494 
	C342.235352,114.211967 342.151489,113.617020 342.067627,113.022079 
	C343.835999,109.123360 345.604340,105.224648 348.086548,101.159988 
	C355.493317,100.912025 356.136414,100.274658 354.954559,94.894623 
	C357.088684,93.986397 359.222778,93.078163 361.867279,92.375526 
	C362.913544,92.404587 363.449463,92.228050 363.985352,92.051514 
	C364.435608,92.022255 364.885834,91.993004 365.672485,92.005653 
z"/>
<path fill="#F0EBC7" opacity="1.000000" stroke="none" 
	d="
M323.155579,114.129227 
	C325.401886,113.877052 326.016174,119.876564 329.713013,115.176155 
	C330.299469,115.744995 330.628113,116.539230 330.966217,118.027847 
	C331.617706,119.517944 332.259735,120.313667 332.901764,121.109390 
	C332.902954,121.825066 332.904114,122.540749 332.632874,123.882515 
	C332.235046,126.029480 332.109619,127.550354 331.984192,129.071228 
	C329.416870,126.283974 326.849518,123.496719 324.141571,120.418282 
	C323.700165,118.264870 323.399384,116.402626 323.155579,114.129227 
z"/>
<path fill="#F9F8EB" opacity="1.000000" stroke="none" 
	d="
M344.833069,141.825989 
	C345.028503,142.447861 344.959259,142.771179 344.507141,143.416794 
	C343.443573,144.176437 342.729889,144.606735 341.716614,145.135986 
	C340.283600,146.160248 339.150177,147.085541 337.579041,148.004379 
	C336.552307,147.989166 335.963287,147.980392 335.374207,147.971619 
	C335.557373,145.936554 335.740540,143.901474 335.984131,141.427811 
	C338.896851,141.170975 341.749115,141.352737 344.833069,141.825989 
z"/>
<path fill="#F9F8EB" opacity="1.000000" stroke="none" 
	d="
M332.205933,129.327759 
	C332.109619,127.550354 332.235046,126.029480 332.620789,124.240204 
	C334.072662,128.180283 335.264160,132.388763 336.152344,136.835754 
	C334.708588,134.577606 333.568115,132.080963 332.205933,129.327759 
z"/>
<path fill="#F9F8EB" opacity="1.000000" stroke="none" 
	d="
M332.513306,101.957275 
	C332.896820,98.511246 333.631927,95.008942 334.610199,91.238785 
	C335.560669,91.850922 337.048492,93.028915 336.845245,93.561211 
	C335.750031,96.429573 334.235046,99.137634 332.513306,101.957275 
z"/>
<path fill="#B5B1A2" opacity="1.000000" stroke="none" 
	d="
M354.611206,94.955605 
	C356.136414,100.274658 355.493317,100.912025 348.384399,100.990639 
	C350.068268,98.997009 352.168060,97.006798 354.611206,94.955605 
z"/>
<path fill="#F9F8EB" opacity="1.000000" stroke="none" 
	d="
M330.903687,107.980057 
	C331.067596,106.821098 331.231506,105.662132 331.615479,104.235931 
	C335.084076,105.491280 334.729370,107.545235 332.305450,109.609917 
	C331.573669,108.909363 331.238678,108.444702 330.903687,107.980057 
z"/>
<path fill="#F0EBC7" opacity="1.000000" stroke="none" 
	d="
M330.659546,108.260773 
	C331.238678,108.444702 331.573669,108.909363 331.932800,109.673355 
	C331.551819,110.949951 331.146667,111.927200 330.410828,112.990501 
	C330.191925,111.564873 330.303680,110.053185 330.659546,108.260773 
z"/>
<path fill="#F9F8EB" opacity="1.000000" stroke="none" 
	d="
M332.929657,120.743835 
	C332.259735,120.313667 331.617706,119.517944 330.972870,118.370316 
	C331.632568,118.805031 332.295074,119.591660 332.929657,120.743835 
z"/>
<path fill="#B5B1A2" opacity="1.000000" stroke="none" 
	d="
M363.833374,91.849106 
	C363.449463,92.228050 362.913544,92.404587 362.225464,92.386612 
	C362.609314,92.010292 363.145355,91.828491 363.833374,91.849106 
z"/>
<path fill="#B5B1A2" opacity="1.000000" stroke="none" 
	d="
M341.861389,113.162292 
	C342.151489,113.617020 342.235352,114.211967 342.070557,114.941414 
	C341.766266,114.484779 341.710724,113.893639 341.861389,113.162292 
z"/>
<path fill="#F9F8EB" opacity="1.000000" stroke="none" 
	d="
M354.881927,135.883743 
	C354.599945,136.471909 354.142517,136.803284 353.404358,137.207855 
	C353.651245,136.729691 354.178864,136.178314 354.881927,135.883743 
z"/>
<path fill="#FEDE5A" opacity="1.000000" stroke="none" 
	d="
M140.734741,209.273254 
	C140.344666,209.222382 139.954575,209.171509 139.231903,208.727570 
	C135.278015,206.364685 131.719955,204.263840 128.011703,202.474243 
	C125.791626,201.402832 123.336525,200.818390 120.987061,200.015076 
	C120.987053,200.015091 120.999390,200.000610 120.974442,199.655212 
	C119.288513,196.141571 117.131989,193.688950 113.132919,193.897202 
	C112.583244,193.414185 112.033569,192.931183 111.653091,192.023239 
	C112.100296,190.558655 112.725243,189.471542 112.590752,188.488312 
	C112.199257,185.626022 111.503860,182.805267 110.940285,179.588806 
	C110.656441,177.478745 110.359955,175.748138 110.418304,173.940094 
	C111.509186,170.576721 112.245232,167.290771 112.989418,163.634857 
	C113.012878,162.526657 113.028206,161.788422 113.399635,160.994232 
	C115.169083,158.269699 117.257576,155.745117 117.863342,152.904373 
	C119.397949,145.707855 122.579193,139.564117 127.708786,134.389633 
	C128.349945,133.742859 129.390091,133.491623 130.245377,133.057114 
	C130.658813,133.342590 131.072250,133.628067 131.485687,133.913544 
	C124.788475,140.299850 121.749893,147.727112 123.770012,157.374207 
	C130.151215,154.510849 129.642731,148.732483 130.983429,143.587006 
	C132.771362,140.861145 134.496765,138.475433 136.599915,136.072601 
	C141.682144,136.042618 144.354477,133.687164 145.445526,129.029984 
	C149.739883,127.517815 153.177689,127.630264 155.988144,131.336548 
	C156.668686,132.234039 158.197998,132.658051 159.420273,132.944366 
	C164.040283,134.026520 168.727478,134.831146 173.328079,135.984711 
	C179.788162,137.604523 185.900894,137.531433 191.834671,133.928009 
	C193.351837,133.006683 195.651855,133.001816 197.548630,133.146591 
	C203.748291,133.619797 209.915161,134.589325 216.118652,134.926392 
	C222.384201,135.266846 223.911438,136.572540 223.588531,142.970184 
	C221.471588,143.328186 219.736618,143.675369 217.803619,143.771942 
	C216.755936,144.691833 215.906296,145.862350 215.002197,147.369965 
	C212.965485,149.471649 210.983246,151.236252 208.624817,153.005798 
	C207.165344,154.340668 206.082062,155.670593 204.834808,157.380875 
	C202.330795,168.803604 205.436157,177.997009 214.579254,184.646774 
	C222.343964,190.294083 228.331299,186.444839 230.108353,179.149582 
	C231.463364,173.586823 234.273193,169.492996 237.268066,164.871017 
	C237.691101,163.828400 237.837463,162.912079 237.989563,161.567459 
	C238.000717,159.425369 238.006134,157.711548 238.278198,155.814087 
	C239.354675,154.408463 240.164490,153.186478 241.099319,151.699585 
	C241.815735,150.942917 242.407150,150.451157 243.143066,150.305328 
	C244.176636,152.441742 245.065735,154.232239 245.966919,156.487671 
	C246.321167,162.298981 246.663315,167.645370 247.004517,173.246826 
	C247.005493,173.671967 247.007416,173.842010 247.008270,174.468872 
	C246.987564,178.275589 246.967972,181.625473 246.660248,185.014221 
	C246.250977,185.703049 246.129837,186.353027 246.008362,187.421036 
	C245.668640,190.556870 245.329285,193.274689 244.643402,196.049072 
	C243.883118,197.090424 243.469330,198.075211 243.077911,199.381699 
	C243.127228,202.146423 243.154205,204.589432 243.181183,207.032455 
	C243.179764,207.206696 243.178360,207.380951 242.769196,207.825897 
	C241.283340,209.446930 240.157532,210.762436 239.140732,212.157394 
	C238.137436,213.533844 237.436752,215.177109 236.270187,216.380371 
	C230.885437,221.934509 223.822876,220.920853 216.599915,221.041992 
	C211.726593,221.036987 207.325500,221.054520 202.503006,221.061584 
	C199.035248,221.348831 195.988922,221.646530 192.705414,221.786301 
	C191.642151,221.425583 190.816040,221.222794 189.560974,221.019577 
	C186.084702,221.025452 183.037430,221.031738 179.990143,221.038025 
	C179.552811,221.027969 179.115463,221.017929 178.286224,220.624695 
	C176.851837,219.531036 175.902588,218.482788 174.751663,218.165009 
	C167.358063,216.123642 159.921051,214.239334 152.496674,212.309647 
	C148.577713,211.291061 144.655487,210.284988 140.734741,209.273254 
z"/>
<path fill="#F6E079" opacity="1.000000" stroke="none" 
	d="
M130.920883,143.927185 
	C129.642731,148.732483 130.151215,154.510849 123.770012,157.374207 
	C121.749893,147.727112 124.788475,140.299850 131.485687,133.913544 
	C131.072250,133.628067 130.658813,133.342590 130.245377,133.057114 
	C129.390091,133.491623 128.349945,133.742859 127.708786,134.389633 
	C122.579193,139.564117 119.397949,145.707855 117.863342,152.904373 
	C117.257576,155.745117 115.169083,158.269699 113.365051,160.685867 
	C112.940399,160.229843 112.906433,160.026199 112.872467,159.822556 
	C115.324608,146.482742 121.462860,135.076752 131.015366,125.505585 
	C133.302277,123.214203 135.819763,121.152946 138.668152,119.309959 
	C140.502914,120.146805 141.900772,120.659546 143.163879,121.485199 
	C140.316772,125.507774 137.604401,129.217438 134.623993,133.130051 
	C132.115387,136.846985 129.874786,140.360962 127.634193,143.874939 
	C128.018539,144.176468 128.402893,144.477997 128.787247,144.779526 
	C129.498459,144.495422 130.209671,144.211304 130.920883,143.927185 
z"/>
<path fill="#F8DE69" opacity="1.000000" stroke="none" 
	d="
M245.954834,156.022736 
	C245.065735,154.232239 244.176636,152.441742 243.297424,149.995728 
	C244.679855,146.907806 246.270966,144.570404 247.378204,142.022690 
	C249.508820,137.120255 246.484421,132.495346 240.967712,131.801178 
	C240.905212,131.611328 240.858124,131.214386 240.891083,130.889526 
	C240.614151,130.034042 240.304260,129.503433 239.995819,128.557236 
	C240.001221,126.754639 240.005157,125.367638 240.009094,123.980629 
	C242.851105,127.226326 245.832657,130.138580 250.144470,131.589111 
	C253.906662,132.854736 253.336060,136.041992 252.455505,139.063110 
	C251.955185,140.779709 251.493454,142.507568 251.030579,144.639221 
	C251.046783,145.048096 251.038620,145.021072 250.681580,145.070984 
	C249.937576,146.148987 249.550629,147.177063 249.163681,148.205154 
	C248.548630,149.283600 247.933578,150.362061 246.908325,151.949677 
	C246.317032,153.646805 246.135941,154.834763 245.954834,156.022736 
z"/>
<path fill="#F6E079" opacity="1.000000" stroke="none" 
	d="
M161.286011,81.716339 
	C163.019821,80.608536 164.649261,79.825729 166.609009,79.355629 
	C165.709290,81.192421 164.413803,82.668732 163.260788,84.248985 
	C158.623199,90.604988 153.684006,96.778305 149.540833,103.444595 
	C146.756424,107.924667 145.121658,113.119270 142.676575,117.973457 
	C141.918182,117.631523 141.455750,117.310318 140.993317,116.989120 
	C143.122971,112.039444 144.758423,106.794586 147.497528,102.208961 
	C151.656601,95.246117 156.581863,88.740929 161.286011,81.716339 
z"/>
<path fill="#F5E389" opacity="1.000000" stroke="none" 
	d="
M245.966934,156.487671 
	C246.135941,154.834763 246.317032,153.646805 246.782379,152.234207 
	C247.717041,161.858765 249.266785,171.755951 248.744186,181.542496 
	C248.295364,189.947693 245.478622,198.226471 243.445068,206.796799 
	C243.154205,204.589432 243.127228,202.146423 243.415924,199.310028 
	C244.151031,197.941925 244.570480,196.967224 244.989914,195.992508 
	C245.329285,193.274689 245.668640,190.556870 246.254425,187.251953 
	C246.650009,186.101685 246.799179,185.538528 246.948364,184.975372 
	C246.967972,181.625473 246.987564,178.275589 247.179413,174.377411 
	C247.236267,173.550003 247.120865,173.270874 247.005463,172.991745 
	C246.663315,167.645370 246.321167,162.298981 245.966934,156.487671 
z"/>
<path fill="#F5E389" opacity="1.000000" stroke="none" 
	d="
M217.072174,221.064514 
	C223.822876,220.920853 230.885437,221.934509 236.270187,216.380371 
	C237.436752,215.177109 238.137436,213.533844 239.140732,212.157394 
	C240.157532,210.762436 241.283340,209.446930 242.734131,208.084930 
	C242.849747,214.511627 239.606384,219.131226 233.637497,221.013138 
	C228.567932,222.611465 223.134842,223.056702 217.422974,223.615570 
	C217.012955,222.500839 217.042557,221.782684 217.072174,221.064514 
z"/>
<path fill="#F5E389" opacity="1.000000" stroke="none" 
	d="
M140.865753,209.594742 
	C144.655487,210.284988 148.577713,211.291061 152.496674,212.309647 
	C159.921051,214.239334 167.358063,216.123642 174.751663,218.165009 
	C175.902588,218.482788 176.851837,219.531036 177.958679,220.605499 
	C168.328049,218.475082 158.604477,216.084259 148.956131,213.420883 
	C146.191223,212.657639 143.643875,211.106232 140.865753,209.594742 
z"/>
<path fill="#F5E389" opacity="1.000000" stroke="none" 
	d="
M121.165749,200.302811 
	C123.336525,200.818390 125.791626,201.402832 128.011703,202.474243 
	C131.719955,204.263840 135.278015,206.364685 138.939133,208.691040 
	C133.100784,206.228577 127.222610,203.409561 121.165749,200.302811 
z"/>
<path fill="#F8DE69" opacity="1.000000" stroke="none" 
	d="
M216.599915,221.041992 
	C217.042557,221.782684 217.012955,222.500839 216.975861,223.577759 
	C215.911484,223.966217 214.854584,223.995911 213.147034,223.732086 
	C210.331833,223.617416 208.167328,223.796295 206.002808,223.975159 
	C205.261078,223.974762 204.519333,223.974365 203.398315,223.592194 
	C202.987503,222.497620 202.955963,221.784836 202.924408,221.072052 
	C207.325500,221.054520 211.726593,221.036987 216.599915,221.041992 
z"/>
<path fill="#F6E079" opacity="1.000000" stroke="none" 
	d="
M110.927643,179.968231 
	C111.503860,182.805267 112.199257,185.626022 112.590752,188.488312 
	C112.725243,189.471542 112.100296,190.558655 111.541718,191.773132 
	C110.789268,190.963318 110.317406,189.978668 109.861786,188.244324 
	C109.242348,185.658768 108.606682,183.822922 107.971024,181.987076 
	C107.981071,181.548767 107.991119,181.110458 108.389938,180.339417 
	C109.495026,179.993881 110.211342,179.981049 110.927643,179.968231 
z"/>
<path fill="#F5E389" opacity="1.000000" stroke="none" 
	d="
M202.502991,221.061584 
	C202.955963,221.784836 202.987503,222.497620 203.028214,223.566299 
	C199.877243,223.809113 196.717087,223.696030 193.264343,223.024689 
	C192.962036,222.292358 192.952301,222.118286 192.942581,221.944229 
	C195.988922,221.646530 199.035248,221.348831 202.502991,221.061584 
z"/>
<path fill="#F6E079" opacity="1.000000" stroke="none" 
	d="
M112.981277,164.004822 
	C112.245232,167.290771 111.509186,170.576721 110.154221,173.931915 
	C109.359673,173.999603 109.184029,173.998016 109.008385,173.996429 
	C109.033287,173.252441 109.058197,172.508469 109.463806,171.314850 
	C110.890099,168.578430 111.935692,166.291626 112.981277,164.004822 
z"/>
<path fill="#F5E389" opacity="1.000000" stroke="none" 
	d="
M112.989418,163.634857 
	C111.935692,166.291626 110.890099,168.578430 109.512695,170.945709 
	C110.213326,167.438354 111.245766,163.850540 112.575333,160.042633 
	C112.906433,160.026199 112.940399,160.229843 113.008942,160.741852 
	C113.028206,161.788422 113.012878,162.526657 112.989418,163.634857 
z"/>
<path fill="#F5E389" opacity="1.000000" stroke="none" 
	d="
M113.219856,194.225433 
	C117.131989,193.688950 119.288513,196.141571 120.967186,199.663727 
	C118.425522,198.196289 115.866158,196.374969 113.219856,194.225433 
z"/>
<path fill="#F5E389" opacity="1.000000" stroke="none" 
	d="
M180.254181,221.316208 
	C183.037430,221.031738 186.084702,221.025452 189.589691,221.286591 
	C190.073456,221.731293 190.099518,221.908569 190.113968,222.266907 
	C190.102356,222.447983 190.111282,222.810791 190.111282,222.810791 
	C186.913605,222.405319 183.715912,221.999863 180.254181,221.316208 
z"/>
<path fill="#F6E175" opacity="1.000000" stroke="none" 
	d="
M140.684372,117.031349 
	C141.455750,117.310318 141.918182,117.631523 142.705048,118.272018 
	C143.352310,119.060120 143.675140,119.528931 143.998718,120.254562 
	C143.999924,120.682587 144.000351,120.853790 143.827652,121.073349 
	C143.654526,121.121704 143.298615,121.172287 143.298615,121.172287 
	C141.900772,120.659546 140.502914,120.146805 139.016479,119.243034 
	C139.410416,118.259193 139.892929,117.666389 140.684372,117.031349 
z"/>
<path fill="#F5E389" opacity="1.000000" stroke="none" 
	d="
M206.259521,224.252472 
	C208.167328,223.796295 210.331833,223.617416 212.749969,223.722595 
	C210.841141,224.181015 208.678696,224.355408 206.259521,224.252472 
z"/>
<path fill="#F5E389" opacity="1.000000" stroke="none" 
	d="
M108.848801,174.344971 
	C109.184029,173.998016 109.359673,173.999603 109.799393,174.009338 
	C110.359955,175.748138 110.656441,177.478745 110.940292,179.588806 
	C110.211342,179.981049 109.495026,179.993881 108.420914,180.011932 
	C108.271812,178.242630 108.480515,176.468063 108.848801,174.344971 
z"/>
<path fill="#F5E389" opacity="1.000000" stroke="none" 
	d="
M107.718994,182.215958 
	C108.606682,183.822922 109.242348,185.658768 109.849091,187.888794 
	C109.035759,186.336914 108.251373,184.390884 107.718994,182.215958 
z"/>
<path fill="#F5E389" opacity="1.000000" stroke="none" 
	d="
M249.485870,148.094910 
	C249.550629,147.177063 249.937576,146.148987 250.686066,145.080139 
	C250.634415,146.021133 250.221222,147.002899 249.485870,148.094910 
z"/>
<path fill="#F8DE69" opacity="1.000000" stroke="none" 
	d="
M190.125580,222.085831 
	C190.099518,221.908569 190.073456,221.731293 190.018661,221.287003 
	C190.816040,221.222794 191.642151,221.425583 192.705414,221.786301 
	C192.952301,222.118286 192.962036,222.292358 192.984253,222.727509 
	C192.520401,222.952164 192.044052,222.915710 191.131348,222.656219 
	C190.541702,222.257645 190.351898,222.141861 190.125580,222.085831 
z"/>
<path fill="#FEDE5A" opacity="1.000000" stroke="none" 
	d="
M190.113968,222.266907 
	C190.351898,222.141861 190.541702,222.257645 190.782471,222.573547 
	C190.869949,222.713928 190.500198,222.844574 190.305740,222.827682 
	C190.111282,222.810791 190.102356,222.447983 190.113968,222.266907 
z"/>
<path fill="#BEBBA3" opacity="1.000000" stroke="none" 
	d="
M323.909149,157.476288 
	C325.032928,157.260178 326.286835,157.396667 327.911133,157.573486 
	C327.911133,154.520279 327.911133,151.773605 327.911133,147.596375 
	C329.389557,150.886871 330.274689,152.856827 331.389282,155.236328 
	C329.337128,164.044250 327.055450,172.442642 324.773804,180.841019 
	C320.569794,186.687500 316.391785,192.553131 312.127655,198.355438 
	C311.615051,199.052963 310.635468,199.407303 308.654724,200.739838 
	C312.668732,193.790482 316.246277,188.238449 319.165497,182.359543 
	C322.004211,176.642822 324.261230,170.627426 326.588104,164.670685 
	C327.702209,161.818573 327.159088,159.262680 323.909149,157.476288 
z"/>
<path fill="#F0EBC7" opacity="1.000000" stroke="none" 
	d="
M325.171631,180.886673 
	C327.055450,172.442642 329.337128,164.044250 331.738525,155.298645 
	C332.886078,152.758163 333.913940,150.564896 335.158020,148.171631 
	C335.963287,147.980392 336.552307,147.989166 337.436951,148.330826 
	C335.333954,156.745361 332.935333,164.826996 330.294983,173.102386 
	C329.351288,174.516586 328.649323,175.737000 327.797913,177.025848 
	C327.782104,177.082642 327.915710,177.070999 328.426392,177.072601 
	C329.558929,177.086517 330.314423,177.087173 331.069885,177.087830 
	C329.236420,178.369339 327.402924,179.650833 325.171631,180.886673 
z"/>
<path fill="#BEBBA3" opacity="1.000000" stroke="none" 
	d="
M331.389648,177.013763 
	C330.314423,177.087173 329.558929,177.086517 328.402344,177.045700 
	C328.001190,177.005539 327.947357,176.957428 327.947357,176.957428 
	C328.649323,175.737000 329.351288,174.516586 330.683044,173.036499 
	C333.207611,172.183350 335.102356,171.589859 336.998535,170.998184 
	C337.000000,171.000000 337.003662,171.002960 337.003662,171.002960 
	C336.730835,171.908951 336.458038,172.814941 336.106812,174.082092 
	C334.588776,175.275406 333.149109,176.107559 331.389648,177.013763 
z"/>
<path fill="#FBDE62" opacity="1.000000" stroke="none" 
	d="
M143.997955,119.997742 
	C143.675140,119.528931 143.352310,119.060120 143.001007,118.292755 
	C145.121658,113.119270 146.756424,107.924667 149.540833,103.444595 
	C153.684006,96.778305 158.623199,90.604988 163.260788,84.248985 
	C164.413803,82.668732 165.709290,81.192421 166.957153,79.319595 
	C166.974991,78.970848 166.989136,78.991722 167.374298,78.996719 
	C172.019318,78.799522 175.012527,76.661682 176.985367,72.964539 
	C177.455170,72.659058 177.924973,72.353584 178.728836,72.345978 
	C180.011856,72.389053 180.960831,72.134270 181.909790,71.879486 
	C181.909790,71.879478 181.865997,71.853683 182.293259,71.886444 
	C196.965240,68.719276 210.321777,69.666779 221.751617,80.076172 
	C222.495605,80.753738 223.889404,80.717812 224.980927,81.013786 
	C224.980927,81.013786 224.993790,81.001999 224.989761,81.012230 
	C225.503906,82.683014 225.545807,84.789574 226.616409,85.932838 
	C234.463501,94.312668 237.293442,104.289009 237.167648,115.535515 
	C237.138763,118.118607 238.819489,120.720810 239.861267,123.647415 
	C240.005157,125.367638 240.001221,126.754639 239.605576,128.561035 
	C236.377457,129.010071 232.384781,131.850021 231.989075,125.555557 
	C232.029770,122.742462 232.049103,120.373001 232.330383,117.733322 
	C232.106705,115.286995 231.621063,113.110870 231.104309,110.616608 
	C231.068771,109.871513 231.064346,109.444550 231.309357,108.783722 
	C231.039597,107.365311 230.520416,106.180763 229.991058,104.610031 
	C226.039307,89.495575 217.490433,79.247696 201.897308,76.560287 
	C196.732040,75.670059 191.327744,76.166702 185.647247,76.026276 
	C182.837006,77.335663 180.412231,78.648048 177.989044,79.976601 
	C177.990646,79.992767 177.959122,79.984795 177.577316,79.987022 
	C175.452423,80.981026 173.709320,81.972801 171.602768,82.976761 
	C169.831253,84.334015 168.423218,85.679077 166.866638,87.314651 
	C165.127823,89.397377 163.537537,91.189598 161.737213,93.094490 
	C161.265915,93.408897 161.089523,93.668343 160.998077,93.993027 
	C160.998154,94.000557 160.983398,93.994469 160.641632,94.048172 
	C159.860977,95.060097 159.422089,96.018318 158.752258,96.997337 
	C158.521301,97.018135 158.058197,97.042397 157.668457,97.074585 
	C156.519806,99.739525 155.760880,102.372284 154.972336,105.322617 
	C154.620270,106.422798 154.297821,107.205399 153.683594,108.022980 
	C153.274414,108.707916 153.157043,109.357887 153.026474,110.423645 
	C153.011154,112.225906 153.009048,113.612381 152.691238,115.153679 
	C149.583008,116.871582 146.790482,118.434662 143.997955,119.997742 
z"/>
<path fill="#F5E389" opacity="1.000000" stroke="none" 
	d="
M224.858704,80.697800 
	C223.889404,80.717812 222.495605,80.753738 221.751617,80.076172 
	C210.321777,69.666779 196.965240,68.719276 182.296066,71.861176 
	C182.719131,70.917328 183.468948,69.387619 184.428802,69.241989 
	C199.490967,66.956642 213.771896,67.750351 224.858704,80.697800 
z"/>
<path fill="#F6E079" opacity="1.000000" stroke="none" 
	d="
M176.607895,72.971512 
	C175.012527,76.661682 172.019318,78.799522 167.368561,78.989059 
	C170.061905,76.977097 173.146164,74.977791 176.607895,72.971512 
z"/>
<path fill="#F6E079" opacity="1.000000" stroke="none" 
	d="
M181.543793,71.862869 
	C180.960831,72.134270 180.011856,72.389053 179.023529,72.340424 
	C179.715378,71.973427 180.446579,71.909843 181.543793,71.862869 
z"/>
<path fill="#FDFDF7" opacity="1.000000" stroke="none" 
	d="
M274.984375,249.336151 
	C274.890045,253.133621 275.742889,257.116730 270.973969,258.072327 
	C268.070312,258.654175 265.473175,257.638214 265.124939,254.334366 
	C264.777191,251.034912 263.588013,246.940460 267.823242,245.246796 
	C271.053802,243.954910 274.084747,244.761047 274.984375,249.336151 
z"/>
<path fill="#FDF9CF" opacity="1.000000" stroke="none" 
	d="
M243.234756,121.300751 
	C246.140747,116.848114 247.863724,120.418831 249.949142,122.639954 
	C247.826965,122.510529 245.653534,122.042130 243.234756,121.300751 
z"/>
<path fill="#FDFDF7" opacity="1.000000" stroke="none" 
	d="
M234.916718,248.718964 
	C233.510620,249.796799 232.202759,250.479568 230.894897,251.162338 
	C230.490097,250.882202 230.085297,250.602066 229.680481,250.321930 
	C230.239532,248.572601 230.798569,246.823288 231.357620,245.073959 
	C232.576721,246.157272 233.795822,247.240585 234.916718,248.718964 
z"/>
<path fill="#FDFDF7" opacity="1.000000" stroke="none" 
	d="
M290.654480,250.833588 
	C289.655365,249.227753 289.054138,247.598694 288.452911,245.969620 
	C288.874664,245.558884 289.296448,245.148148 289.718201,244.737396 
	C291.066681,245.409668 292.415131,246.081924 293.763611,246.754181 
	C292.859863,248.106232 291.956116,249.458298 290.654480,250.833588 
z"/>
<path fill="#A7A6A5" opacity="1.000000" stroke="none" 
	d="
M314.031250,122.968948 
	C316.236359,128.364090 317.772461,134.176285 320.811615,139.051514 
	C324.844086,145.520081 325.348297,145.205750 321.135681,152.949081 
	C317.803986,149.719604 313.270599,147.135544 311.691162,143.326614 
	C309.805969,138.780197 310.105347,133.180359 310.172028,128.046127 
	C310.198029,126.045921 312.168457,124.070961 313.635498,122.282890 
	C314.017792,122.481285 314.031250,122.968948 314.031250,122.968948 
z"/>
<path fill="#BEBBA3" opacity="1.000000" stroke="none" 
	d="
M323.989929,137.012726 
	C322.865356,135.833481 321.740814,134.654236 320.616241,133.475006 
	C321.108917,133.132904 321.601593,132.790802 322.094238,132.448715 
	C322.729553,133.725830 323.364899,135.002930 324.000122,136.640137 
	C324.000000,137.000214 323.989929,137.012711 323.989929,137.012726 
z"/>
<path fill="#BEBBA3" opacity="1.000000" stroke="none" 
	d="
M314.287903,123.149185 
	C314.031250,122.968948 314.017792,122.481285 314.011963,122.237358 
	C315.005463,122.772751 316.004730,123.552063 317.001587,124.666069 
	C316.999207,125.000755 316.987793,125.012512 316.987793,125.012512 
	C316.173401,124.451485 315.358978,123.890457 314.287903,123.149185 
z"/>
<path fill="#BEBBA3" opacity="1.000000" stroke="none" 
	d="
M319.987793,129.012405 
	C319.352203,128.556351 318.716583,128.100281 318.040649,127.321938 
	C318.000336,126.999657 318.008545,126.991318 318.008545,126.991318 
	C318.647095,127.445084 319.285614,127.898842 319.961670,128.676697 
	C319.999176,129.000778 319.987793,129.012405 319.987793,129.012405 
z"/>
<path fill="#BEBBA3" opacity="1.000000" stroke="none" 
	d="
M327.355347,144.875793 
	C327.638275,145.153397 327.755798,145.568253 327.814667,145.991287 
	C327.824921,146.064835 327.587372,146.172867 327.464294,146.264984 
	C327.366211,145.848587 327.268127,145.432190 327.355347,144.875793 
z"/>
<path fill="#BEBBA3" opacity="1.000000" stroke="none" 
	d="
M326.349976,142.278122 
	C326.364502,142.016205 326.502258,141.873611 326.640045,141.731018 
	C326.584442,141.953171 326.528839,142.175323 326.349976,142.278122 
z"/>
<path fill="#BEBBA3" opacity="1.000000" stroke="none" 
	d="
M320.005127,128.996521 
	C320.259186,129.347748 320.509827,129.701645 320.739075,130.068893 
	C320.744232,130.077148 320.505951,130.237350 320.381226,130.326660 
	C320.258362,130.050201 320.135529,129.773727 320.000244,129.254837 
	C319.987793,129.012405 319.999176,129.000778 320.005127,128.996521 
z"/>
<path fill="#BEBBA3" opacity="1.000000" stroke="none" 
	d="
M317.996277,127.002487 
	C317.673004,126.538681 317.353729,126.072044 317.011108,125.308960 
	C316.987793,125.012512 316.999207,125.000755 317.005432,124.996323 
	C317.331787,125.459724 317.651917,125.927567 317.990295,126.693359 
	C318.008545,126.991318 318.000336,126.999657 317.996277,127.002487 
z"/>
<path fill="#BEBBA3" opacity="1.000000" stroke="none" 
	d="
M324.006104,136.995361 
	C324.131714,137.141708 324.251251,137.292892 324.370789,137.444077 
	C324.280884,137.394730 324.190948,137.345383 324.045471,137.154358 
	C323.989929,137.012711 324.000000,137.000214 324.006104,136.995361 
z"/>
<path fill="#A7A6A5" opacity="1.000000" stroke="none" 
	d="
M342.016235,145.037018 
	C342.729889,144.606735 343.443573,144.176437 344.470764,143.662903 
	C345.264984,143.983627 345.719177,144.694031 346.230865,144.738190 
	C348.369598,144.922729 350.525543,144.907257 352.675201,144.965088 
	C352.528473,147.864960 352.383453,150.764923 352.230347,153.664459 
	C352.221893,153.824509 352.146149,153.981003 351.704041,154.595901 
	C348.867859,157.701141 346.429382,160.349640 343.990906,162.998138 
	C343.669830,163.097031 343.410675,163.282440 342.820892,163.912933 
	C341.287384,165.182068 340.146362,166.092636 338.617920,167.001846 
	C337.267212,166.137573 335.447296,165.242081 335.478668,164.416946 
	C335.696167,158.694046 336.264069,153.016068 340.744385,148.610245 
	C341.555359,147.812759 341.611572,146.247726 342.016235,145.037018 
z"/>
<path fill="#BEBBA3" opacity="1.000000" stroke="none" 
	d="
M344.186096,163.245148 
	C346.429382,160.349640 348.867859,157.701141 351.650452,155.002121 
	C349.456787,157.798462 346.919006,160.645309 344.186096,163.245148 
z"/>
<path fill="#BEBBA3" opacity="1.000000" stroke="none" 
	d="
M339.005371,167.003204 
	C340.146362,166.092636 341.287384,165.182068 342.714813,164.130859 
	C341.568115,165.969818 340.135040,167.949402 338.350952,169.964493 
	C338.000000,170.000000 338.001221,170.000610 338.028137,169.681854 
	C338.371826,168.576477 338.688599,167.789856 339.005371,167.003204 
z"/>
<path fill="#BEBBA3" opacity="1.000000" stroke="none" 
	d="
M337.999756,169.999695 
	C337.905884,170.326904 337.721191,170.590622 337.224548,170.896759 
	C337.003662,171.002960 337.000000,171.000000 337.106903,170.778915 
	C337.413971,170.284103 337.676453,170.098358 338.001221,170.000610 
	C338.001221,170.000610 338.000000,170.000000 337.999756,169.999695 
z"/>
<path fill="#BEBBA3" opacity="1.000000" stroke="none" 
	d="
M323.982117,101.094223 
	C324.067474,99.467690 324.152893,98.252327 324.238312,97.036972 
	C324.421936,97.044899 324.605591,97.052818 324.789246,97.060745 
	C324.789246,99.965454 324.789246,102.870163 324.789246,105.774872 
	C324.520203,105.796707 324.251190,105.818535 323.982147,105.840363 
	C323.982147,104.395378 323.982147,102.950386 323.982117,101.094223 
z"/>
<path fill="#BEBBA3" opacity="1.000000" stroke="none" 
	d="
M325.697205,108.892563 
	C325.731842,109.463905 325.601379,109.868774 325.470917,110.273636 
	C325.360321,110.163132 325.139709,110.028580 325.157715,109.946198 
	C325.248260,109.532013 325.401093,109.131447 325.697205,108.892563 
z"/>
<path fill="#BEBBA3" opacity="1.000000" stroke="none" 
	d="
M326.038055,93.026855 
	C325.896027,93.463364 325.753998,93.899872 325.611969,94.336372 
	C325.588959,93.965401 325.565979,93.594421 325.768799,93.108231 
	C325.994568,92.993019 326.038055,93.026855 326.038055,93.026855 
z"/>
<path fill="#BEBBA3" opacity="1.000000" stroke="none" 
	d="
M325.974609,92.974030 
	C326.097015,92.521370 326.239380,92.087692 326.381775,91.654022 
	C326.403015,92.022285 326.424225,92.390556 326.241760,92.892838 
	C326.038055,93.026855 325.994568,92.993019 325.974609,92.974030 
z"/>
<path fill="#BEBBA3" opacity="1.000000" stroke="none" 
	d="
M327.562256,89.458557 
	C327.602783,89.524124 327.521759,89.392990 327.562256,89.458557 
z"/>
<path fill="#AFAC9F" opacity="1.000000" stroke="none" 
	d="
M338.028137,169.681854 
	C337.676453,170.098358 337.413971,170.284103 337.105469,170.777100 
	C335.102356,171.589859 333.207611,172.183350 330.924805,172.842728 
	C332.935333,164.826996 335.333954,156.745361 337.874664,148.337280 
	C339.150177,147.085541 340.283600,146.160248 341.716614,145.135986 
	C341.611572,146.247726 341.555359,147.812759 340.744385,148.610245 
	C336.264069,153.016068 335.696167,158.694046 335.478668,164.416946 
	C335.447296,165.242081 337.267212,166.137573 338.617920,167.001862 
	C338.688599,167.789856 338.371826,168.576477 338.028137,169.681854 
z"/>
<path fill="#F6E175" opacity="1.000000" stroke="none" 
	d="
M223.970535,142.959381 
	C223.911438,136.572540 222.384201,135.266846 216.118652,134.926392 
	C209.915161,134.589325 203.748291,133.619797 197.548630,133.146591 
	C195.651855,133.001816 193.351837,133.006683 191.834671,133.928009 
	C185.900894,137.531433 179.788162,137.604523 173.328079,135.984711 
	C168.727478,134.831146 164.040283,134.026520 159.420273,132.944366 
	C158.197998,132.658051 156.668686,132.234039 155.988144,131.336548 
	C153.177689,127.630264 149.739883,127.517815 145.384155,128.955231 
	C144.927246,128.903427 144.807785,128.753342 145.002808,128.482864 
	C147.404922,125.860893 149.520401,124.682068 152.967850,126.594635 
	C155.626343,128.069504 158.971924,128.305893 162.252228,129.353287 
	C167.033890,130.845062 171.575363,132.076492 176.116821,133.307907 
	C176.302307,132.666672 176.487793,132.025421 176.673279,131.384186 
	C171.806915,129.564194 166.940567,127.744202 161.844330,125.892441 
	C161.614456,125.860657 161.151489,125.827660 161.068115,125.525391 
	C160.324478,124.813919 159.664200,124.404716 158.788025,123.743225 
	C156.707825,122.339371 154.843521,121.187820 153.105011,119.744980 
	C153.837540,118.624985 154.444244,117.796288 155.406830,117.010422 
	C178.780197,128.785385 203.198135,134.064102 229.000061,133.336975 
	C228.732010,135.266632 228.467911,136.806335 228.212494,138.636536 
	C228.214783,139.507935 228.208374,140.088867 228.142319,141.063232 
	C229.421860,142.952942 230.761047,144.449203 232.308289,146.053284 
	C232.775864,146.356461 232.950684,146.610184 233.024994,147.264664 
	C233.014404,148.063110 233.019669,148.519150 232.719818,149.002808 
	C231.932983,149.361740 231.451263,149.693085 230.671631,149.866058 
	C228.561340,148.154633 226.748978,146.601578 224.968491,145.024719 
	C225.000381,145.000900 224.950867,145.063705 224.948181,144.753326 
	C224.620514,143.948425 224.295532,143.453903 223.970535,142.959381 
z"/>
<path fill="#F5E389" opacity="1.000000" stroke="none" 
	d="
M223.588531,142.970184 
	C224.295532,143.453903 224.620514,143.948425 224.570435,144.736603 
	C223.224609,145.164688 221.951080,144.950821 221.331512,145.489319 
	C216.838928,149.394165 212.428146,153.398346 208.124451,157.510254 
	C207.392853,158.209229 207.073517,159.550415 206.947464,160.639328 
	C205.892303,169.753052 210.678696,178.628143 218.787674,182.918015 
	C221.752884,184.486679 224.008606,184.500946 225.609543,180.964508 
	C228.683044,174.175262 231.879837,167.438171 235.196182,160.764282 
	C236.594803,157.949661 235.025345,156.762802 233.251312,154.976044 
	C230.220871,151.923889 227.681961,148.383728 224.936600,145.048523 
	C226.748978,146.601578 228.561340,148.154633 230.830292,150.168060 
	C233.528427,152.418198 235.769989,154.207977 238.011551,155.997742 
	C238.006134,157.711548 238.000717,159.425369 237.728638,161.774002 
	C237.305099,163.271652 237.148239,164.134476 236.991394,164.997299 
	C234.273193,169.492996 231.463364,173.586823 230.108353,179.149582 
	C228.331299,186.444839 222.343964,190.294083 214.579254,184.646774 
	C205.436157,177.997009 202.330795,168.803604 205.124420,157.246552 
	C206.719025,155.488205 207.860001,154.244537 209.000992,153.000854 
	C210.983246,151.236252 212.965485,149.471649 215.316376,147.320099 
	C216.457245,145.962952 217.229462,144.992767 218.001678,144.022583 
	C219.736618,143.675369 221.471588,143.328186 223.588531,142.970184 
z"/>
<path fill="#F5E389" opacity="1.000000" stroke="none" 
	d="
M241.030228,131.991043 
	C246.484421,132.495346 249.508820,137.120255 247.378204,142.022690 
	C246.270966,144.570404 244.679855,146.907806 243.152954,149.649811 
	C242.407150,150.451157 241.815735,150.942917 240.763763,151.675781 
	C239.187790,150.998291 238.072372,150.079681 237.343475,149.101898 
	C243.233871,148.924561 243.939026,144.023132 245.378799,140.510315 
	C245.976822,139.051270 243.801743,136.405014 242.775391,134.354858 
	C242.343414,133.491943 241.620758,132.774567 241.030228,131.991043 
z"/>
<path fill="#F8DE69" opacity="1.000000" stroke="none" 
	d="
M236.956970,149.161087 
	C238.072372,150.079681 239.187790,150.998291 240.638763,151.940689 
	C240.164490,153.186478 239.354675,154.408463 238.278198,155.814087 
	C235.769989,154.207977 233.528427,152.418198 231.128204,150.326431 
	C231.451263,149.693085 231.932983,149.361740 233.082886,149.005707 
	C234.235291,148.940048 234.719528,148.899078 235.500320,148.880966 
	C236.183578,148.989578 236.570267,149.075333 236.956970,149.161087 
z"/>
<path fill="#FCF1AA" opacity="1.000000" stroke="none" 
	d="
M130.983429,143.587021 
	C130.209671,144.211304 129.498459,144.495422 128.787247,144.779526 
	C128.402893,144.477997 128.018539,144.176468 127.634193,143.874939 
	C129.874786,140.360962 132.115387,136.846985 134.793915,133.378891 
	C135.829849,133.925873 136.427841,134.426956 136.824097,135.071625 
	C136.349121,135.442703 136.215714,135.734207 136.222153,136.089722 
	C134.496765,138.475433 132.771362,140.861145 130.983429,143.587021 
z"/>
<path fill="#F6E175" opacity="1.000000" stroke="none" 
	d="
M136.599915,136.072601 
	C136.215714,135.734207 136.349121,135.442703 137.082581,134.875671 
	C139.964462,132.608536 142.386124,130.680939 144.807785,128.753342 
	C144.807785,128.753342 144.927246,128.903427 144.988617,128.978180 
	C144.354477,133.687164 141.682144,136.042618 136.599915,136.072601 
z"/>
<path fill="#F6E175" opacity="1.000000" stroke="none" 
	d="
M217.803619,143.771957 
	C217.229462,144.992767 216.457245,145.962952 215.370850,146.983002 
	C215.906296,145.862350 216.755936,144.691833 217.803619,143.771957 
z"/>
<path fill="#F6E175" opacity="1.000000" stroke="none" 
	d="
M208.624817,153.005798 
	C207.860001,154.244537 206.719025,155.488205 205.288422,156.866211 
	C206.082062,155.670593 207.165344,154.340668 208.624817,153.005798 
z"/>
<path fill="#F8DE69" opacity="1.000000" stroke="none" 
	d="
M244.643402,196.049072 
	C244.570480,196.967224 244.151031,197.941925 243.393585,198.988312 
	C243.469330,198.075211 243.883118,197.090424 244.643402,196.049072 
z"/>
<path fill="#F8DE69" opacity="1.000000" stroke="none" 
	d="
M237.268066,164.871017 
	C237.148239,164.134476 237.305099,163.271652 237.722885,162.202286 
	C237.837463,162.912079 237.691101,163.828400 237.268066,164.871017 
z"/>
<path fill="#F8DE69" opacity="1.000000" stroke="none" 
	d="
M246.660233,185.014221 
	C246.799179,185.538528 246.650009,186.101685 246.254776,186.833923 
	C246.129837,186.353027 246.250977,185.703049 246.660233,185.014221 
z"/>
<path fill="#F8DE69" opacity="1.000000" stroke="none" 
	d="
M247.004517,173.246826 
	C247.120865,173.270874 247.236267,173.550003 247.180511,173.920593 
	C247.007416,173.842010 247.005493,173.671967 247.004517,173.246826 
z"/>
<path fill="#FEFAD2" opacity="1.000000" stroke="none" 
	d="
M145.002808,128.482864 
	C142.386124,130.680939 139.964462,132.608536 137.284317,134.732086 
	C136.427841,134.426956 135.829849,133.925873 135.061951,133.175949 
	C137.604401,129.217438 140.316772,125.507774 143.163879,121.485199 
	C143.298615,121.172287 143.654526,121.121704 144.190033,121.026001 
	C147.476761,120.632286 150.227997,120.334282 152.979218,120.036270 
	C154.843521,121.187820 156.707825,122.339371 158.829376,124.073822 
	C159.774918,125.047028 160.463196,125.437340 161.151489,125.827660 
	C161.151489,125.827660 161.614456,125.860657 161.821777,126.288742 
	C162.023392,127.508865 162.017700,128.300903 162.012009,129.092926 
	C158.971924,128.305893 155.626343,128.069504 152.967850,126.594635 
	C149.520401,124.682068 147.404922,125.860893 145.002808,128.482864 
z"/>
<path fill="#F9F8EB" opacity="1.000000" stroke="none" 
	d="
M237.343475,149.101898 
	C236.570267,149.075333 236.183578,148.989578 235.405823,148.579834 
	C234.356796,147.811325 233.698807,147.366806 233.040833,146.922272 
	C232.950684,146.610184 232.775864,146.356461 232.167267,145.743408 
	C230.612778,143.773758 229.407364,142.221771 228.201965,140.669785 
	C228.208374,140.088867 228.214783,139.507935 228.531601,138.513062 
	C230.178513,136.951645 231.368820,135.532181 232.884277,134.717667 
	C235.433472,133.347565 238.189255,132.361832 240.858124,131.214386 
	C240.858124,131.214386 240.905212,131.611328 240.967712,131.801178 
	C241.620758,132.774567 242.343414,133.491943 242.775391,134.354858 
	C243.801743,136.405014 245.976822,139.051270 245.378799,140.510315 
	C243.939026,144.023132 243.233871,148.924561 237.343475,149.101898 
z"/>
<path fill="#F5E389" opacity="1.000000" stroke="none" 
	d="
M240.891083,130.889526 
	C238.189255,132.361832 235.433472,133.347565 232.884277,134.717667 
	C231.368820,135.532181 230.178513,136.951645 228.522903,138.222595 
	C228.467911,136.806335 228.732010,135.266632 229.137238,133.032562 
	C230.174805,130.225204 231.071259,128.112198 231.967728,125.999184 
	C232.384781,131.850021 236.377457,129.010071 239.604126,128.976624 
	C240.304260,129.503433 240.614151,130.034042 240.891083,130.889526 
z"/>
<path fill="#F6E079" opacity="1.000000" stroke="none" 
	d="
M153.105011,119.744980 
	C150.227997,120.334282 147.476761,120.632286 144.363159,120.977638 
	C144.000351,120.853790 143.999924,120.682587 143.998718,120.254562 
	C146.790482,118.434662 149.583008,116.871582 152.958191,115.271042 
	C154.044220,115.811577 154.547592,116.389580 155.050964,116.967583 
	C154.444244,117.796288 153.837540,118.624985 153.105011,119.744980 
z"/>
<path fill="#BEBBA3" opacity="1.000000" stroke="none" 
	d="
M328.025269,177.032440 
	C327.915710,177.070999 327.782104,177.082642 327.797913,177.025848 
	C327.947357,176.957428 328.001190,177.005539 328.025269,177.032440 
z"/>
<path fill="#FAEB9A" opacity="1.000000" stroke="none" 
	d="
M155.406830,117.010422 
	C154.547592,116.389580 154.044220,115.811577 153.273895,115.116211 
	C153.009048,113.612381 153.011154,112.225906 153.268585,110.253235 
	C153.674408,109.107353 153.824905,108.547684 153.975388,107.988007 
	C154.297821,107.205399 154.620270,106.422798 155.239258,105.095474 
	C156.376602,102.047966 157.217392,99.545181 158.058197,97.042397 
	C158.058197,97.042397 158.521301,97.018135 159.012344,96.902359 
	C159.979202,96.506630 160.455017,96.226685 160.996002,96.005188 
	C161.061157,96.063637 161.189713,96.182487 161.129089,96.537476 
	C159.613861,100.308601 158.159241,103.724724 156.594589,107.399269 
	C164.721939,107.991730 171.653091,108.291542 178.535339,109.040627 
	C193.746109,110.696228 208.395905,114.541985 222.232529,121.171051 
	C228.915421,124.372787 228.867325,124.473183 231.275848,118.000809 
	C231.716187,118.001358 231.892319,118.002449 232.068436,118.003532 
	C232.049103,120.373001 232.029770,122.742462 231.989075,125.555557 
	C231.071259,128.112198 230.174805,130.225204 229.141174,132.642639 
	C203.198135,134.064102 178.780197,128.785385 155.406830,117.010422 
M214.132309,121.146164 
	C205.852676,118.840393 197.677414,115.990555 189.265060,114.376526 
	C180.221329,112.641373 170.962982,111.987312 161.778000,111.063240 
	C160.271591,110.911690 158.660660,111.798981 155.847580,112.531975 
	C158.215134,114.440681 159.302658,115.788841 160.707535,116.370644 
	C167.821106,119.316589 174.804581,123.026161 182.231537,124.665833 
	C194.991470,127.482872 208.038651,129.015839 220.989487,130.923187 
	C222.191025,131.100143 223.566483,130.096237 224.861191,129.640640 
	C224.176102,128.247498 223.847946,126.337112 222.732605,125.567474 
	C220.311737,123.896980 217.488647,122.809341 214.132309,121.146164 
z"/>
<path fill="#FAEB9A" opacity="1.000000" stroke="none" 
	d="
M186.032730,76.029266 
	C191.327744,76.166702 196.732040,75.670059 201.897308,76.560287 
	C217.490433,79.247696 226.039307,89.495575 229.924866,104.952744 
	C229.812653,105.907425 229.756470,106.133209 229.404785,106.173035 
	C228.291611,104.398003 227.295517,102.874458 226.684113,101.209633 
	C221.188477,86.245224 209.424408,77.525864 194.978745,78.102226 
	C189.297897,78.328888 183.675385,80.018066 178.011932,80.776970 
	C177.984741,80.336731 177.971924,80.160759 177.959122,79.984795 
	C177.959122,79.984795 177.990646,79.992767 178.350464,79.952759 
	C181.151093,78.618248 183.591919,77.323753 186.032730,76.029266 
z"/>
<path fill="#FAEB9A" opacity="1.000000" stroke="none" 
	d="
M161.947266,92.981812 
	C163.537537,91.189598 165.127823,89.397377 167.208893,87.311043 
	C168.155869,87.034920 168.612030,87.052917 169.026215,87.412422 
	C166.386063,90.563454 163.787888,93.372971 161.189713,96.182487 
	C161.189713,96.182487 161.061157,96.063637 161.015198,95.680786 
	C160.973953,94.863449 160.978668,94.428955 160.983398,93.994469 
	C160.983398,93.994469 160.998154,94.000557 161.217590,93.891266 
	C161.712082,93.582207 161.882156,93.315483 161.947266,92.981812 
z"/>
<path fill="#F6E175" opacity="1.000000" stroke="none" 
	d="
M157.668457,97.074585 
	C157.217392,99.545181 156.376602,102.047966 155.268890,104.777908 
	C155.760880,102.372284 156.519806,99.739525 157.668457,97.074585 
z"/>
<path fill="#F5E389" opacity="1.000000" stroke="none" 
	d="
M232.330383,117.733322 
	C231.892319,118.002449 231.716187,118.001358 231.243164,117.571274 
	C230.852417,115.160172 230.758530,113.178047 230.782730,111.131348 
	C230.900818,111.066765 231.135422,110.934746 231.135422,110.934746 
	C231.621063,113.110870 232.106705,115.286995 232.330383,117.733322 
z"/>
<path fill="#F6E175" opacity="1.000000" stroke="none" 
	d="
M185.647247,76.026276 
	C183.591919,77.323753 181.151093,78.618248 178.348862,79.936584 
	C180.412231,78.648048 182.837006,77.335663 185.647247,76.026276 
z"/>
<path fill="#F6E175" opacity="1.000000" stroke="none" 
	d="
M169.068192,87.070908 
	C168.612030,87.052917 168.155869,87.034920 167.357437,87.020538 
	C168.423218,85.679077 169.831253,84.334015 171.615921,82.990784 
	C171.992538,82.992630 172.015732,83.020569 171.875412,83.303452 
	C170.838150,84.746918 169.941208,85.907501 169.037689,87.059708 
	C169.031128,87.051338 169.068192,87.070908 169.068192,87.070908 
z"/>
<path fill="#F6E175" opacity="1.000000" stroke="none" 
	d="
M177.577316,79.987022 
	C177.971924,80.160759 177.984741,80.336731 177.737976,80.839287 
	C177.023163,81.470612 176.567917,81.775360 175.755569,82.073380 
	C174.270889,82.384613 173.143311,82.702591 172.015732,83.020569 
	C172.015732,83.020569 171.992538,82.992630 171.979385,82.978607 
	C173.709320,81.972801 175.452423,80.981026 177.577316,79.987022 
z"/>
<path fill="#F5E389" opacity="1.000000" stroke="none" 
	d="
M229.700272,106.358994 
	C229.756470,106.133209 229.812653,105.907425 229.935028,105.338928 
	C230.520416,106.180763 231.039597,107.365311 231.034271,108.774330 
	C230.326675,108.997688 230.143600,108.996574 229.927643,108.663574 
	C229.829926,107.674118 229.765091,107.016556 229.700272,106.358994 
z"/>
<path fill="#F6E175" opacity="1.000000" stroke="none" 
	d="
M160.641632,94.048172 
	C160.978668,94.428955 160.973953,94.863449 160.950043,95.622330 
	C160.455017,96.226685 159.979202,96.506630 159.243286,96.881561 
	C159.422089,96.018318 159.860977,95.060097 160.641632,94.048172 
z"/>
<path fill="#F6E175" opacity="1.000000" stroke="none" 
	d="
M153.683594,108.022980 
	C153.824905,108.547684 153.674408,109.107353 153.281799,109.837440 
	C153.157043,109.357887 153.274414,108.707916 153.683594,108.022980 
z"/>
<path fill="#FAEB9A" opacity="1.000000" stroke="none" 
	d="
M229.960526,108.995461 
	C230.143600,108.996574 230.326675,108.997688 230.784836,109.008194 
	C231.064346,109.444550 231.068771,109.871513 231.104309,110.616608 
	C231.135422,110.934746 230.900818,111.066765 230.538055,111.037811 
	C230.103714,110.337723 230.032120,109.666588 229.960526,108.995461 
z"/>
<path fill="#F6E175" opacity="1.000000" stroke="none" 
	d="
M161.737213,93.094490 
	C161.882156,93.315483 161.712082,93.582207 161.217499,93.883743 
	C161.089523,93.668343 161.265915,93.408897 161.737213,93.094490 
z"/>
<path fill="#FCF1AA" opacity="1.000000" stroke="none" 
	d="
M162.252228,129.353287 
	C162.017700,128.300903 162.023392,127.508865 162.051636,126.320526 
	C166.940567,127.744202 171.806915,129.564194 176.673279,131.384186 
	C176.487793,132.025421 176.302307,132.666672 176.116821,133.307907 
	C171.575363,132.076492 167.033890,130.845062 162.252228,129.353287 
z"/>
<path fill="#F5E389" opacity="1.000000" stroke="none" 
	d="
M228.142303,141.063232 
	C229.407364,142.221771 230.612778,143.773758 231.959198,145.635605 
	C230.761047,144.449203 229.421860,142.952942 228.142303,141.063232 
z"/>
<path fill="#FCF1AA" opacity="1.000000" stroke="none" 
	d="
M161.068115,125.525391 
	C160.463196,125.437340 159.774918,125.047028 159.045288,124.326118 
	C159.664200,124.404716 160.324478,124.813919 161.068115,125.525391 
z"/>
<path fill="#F5E389" opacity="1.000000" stroke="none" 
	d="
M233.024994,147.264664 
	C233.698807,147.366806 234.356796,147.811325 235.109283,148.556976 
	C234.719528,148.899078 234.235291,148.940048 233.388000,148.978119 
	C233.019669,148.519150 233.014404,148.063110 233.024994,147.264664 
z"/>
<path fill="#FEFEF1" opacity="1.000000" stroke="none" 
	d="
M224.968491,145.024719 
	C227.681961,148.383728 230.220871,151.923889 233.251312,154.976044 
	C235.025345,156.762802 236.594803,157.949661 235.196182,160.764282 
	C231.879837,167.438171 228.683044,174.175262 225.609543,180.964508 
	C224.008606,184.500946 221.752884,184.486679 218.787674,182.918015 
	C210.678696,178.628143 205.892303,169.753052 206.947464,160.639328 
	C207.073517,159.550415 207.392853,158.209229 208.124451,157.510254 
	C212.428146,153.398346 216.838928,149.394165 221.331512,145.489319 
	C221.951080,144.950821 223.224609,145.164688 224.573120,145.046967 
	C224.950867,145.063705 225.000381,145.000900 224.968491,145.024719 
z"/>
<path fill="#FEFEF7" opacity="1.000000" stroke="none" 
	d="
M229.927643,108.663574 
	C230.032120,109.666588 230.103714,110.337723 230.419983,111.102386 
	C230.758530,113.178047 230.852417,115.160172 230.978973,117.571823 
	C228.867325,124.473183 228.915421,124.372787 222.232529,121.171051 
	C208.395905,114.541985 193.746109,110.696228 178.535339,109.040627 
	C171.653091,108.291542 164.721939,107.991730 156.594589,107.399269 
	C158.159241,103.724724 159.613861,100.308601 161.129089,96.537476 
	C163.787888,93.372971 166.386063,90.563454 169.026215,87.412422 
	C169.068192,87.070908 169.031128,87.051338 169.398254,87.050476 
	C171.881134,85.393112 173.996902,83.736618 176.112671,82.080124 
	C176.567917,81.775360 177.023163,81.470612 177.752350,81.103546 
	C183.675385,80.018066 189.297897,78.328888 194.978745,78.102226 
	C209.424408,77.525864 221.188477,86.245224 226.684113,101.209633 
	C227.295517,102.874458 228.291611,104.398003 229.404785,106.173035 
	C229.765091,107.016556 229.829926,107.674118 229.927643,108.663574 
z"/>
<path fill="#FBDE62" opacity="1.000000" stroke="none" 
	d="
M214.481171,121.314781 
	C217.488647,122.809341 220.311737,123.896980 222.732605,125.567474 
	C223.847946,126.337112 224.176102,128.247498 224.861191,129.640625 
	C223.566483,130.096237 222.191025,131.100143 220.989487,130.923187 
	C208.038651,129.015839 194.991470,127.482872 182.231537,124.665833 
	C174.804581,123.026161 167.821106,119.316589 160.707535,116.370644 
	C159.302658,115.788841 158.215134,114.440681 155.847580,112.531975 
	C158.660660,111.798981 160.271591,110.911690 161.778000,111.063240 
	C170.962982,111.987312 180.221329,112.641373 189.265060,114.376526 
	C197.677414,115.990555 205.852676,118.840393 214.481171,121.314781 
z"/>
<path fill="#FAEB9A" opacity="1.000000" stroke="none" 
	d="
M175.755569,82.073380 
	C173.996902,83.736618 171.881134,85.393112 169.404816,87.058853 
	C169.941208,85.907501 170.838150,84.746918 171.875412,83.303452 
	C173.143311,82.702591 174.270889,82.384613 175.755569,82.073380 
z"/>
</svg>